<svg width="40.64mm" height="128.5mm" version="1.1" viewBox="0 0 40.64 128.5" xmlns="http://www.w3.org/2000/svg">
<g>
<rect x=".092252" y=".091766" width="40.455" height="128.32" fill="#313131" stroke="#313131" stroke-dashoffset="20.409" stroke-linecap="round" stroke-linejoin="round" stroke-width=".1845" style="paint-order:markers stroke fill"/>
<g transform="translate(0 27.94)"></g>
<rect x="25.73" y="103.4" width="9.5" height="15.059" rx="1" ry="1" style="paint-order:markers stroke fill"/>
<rect x="15.57" y="103.4" width="9.5" height="15.059" rx="1" ry="1" style="paint-order:markers stroke fill"/>
</g>
<g fill="#c8c8c8">
<g stroke="#c8c8c8" stroke-width=".2" aria-label="lomAs">
<path d="m14.256 124.71v-2.4553h0.13053v2.3248h1.711v0.13053z"/>
<path d="m17.626 122.2q0.27517 0 0.508 0.13759 0.23283 0.13405 0.36689 0.36688 0.13758 0.23284 0.13758 0.508v0.53623q0 0.27516-0.13758 0.508-0.13406 0.23283-0.36689 0.37041-0.23283 0.13406-0.508 0.13406t-0.508-0.13406q-0.23283-0.13758-0.37042-0.37041-0.13406-0.23284-0.13406-0.508v-0.53623q0-0.27516 0.13406-0.508 0.13758-0.23283 0.37042-0.36688 0.23283-0.13759 0.508-0.13759zm-0.88194 1.5487q0 0.23989 0.11642 0.4445 0.11994 0.20108 0.32103 0.32102 0.20461 0.11642 0.4445 0.11642t0.44097-0.11642q0.20461-0.11994 0.32103-0.32102 0.11994-0.20461 0.11994-0.4445v-0.53623q0-0.23988-0.11994-0.44097-0.11642-0.20461-0.32103-0.32103-0.20108-0.11994-0.44097-0.11994t-0.4445 0.11994q-0.20108 0.11642-0.32103 0.32103-0.11642 0.20109-0.11642 0.44097z"/>
<path d="m19.376 124.71h-0.13053v-2.4553h0.14111l0.85725 1.5134 0.85372-1.5134h0.13053v2.4553h-0.13053v-2.1943l-0.79375 1.4005h-0.12347l-0.80433-1.4182z"/>
<path d="m24.006 124.71h-2.3142l1.1571-2.5082zm-2.1096-0.13053h1.905l-0.9525-2.0673z"/>
<path d="m25.513 123.54q-0.29986-0.06-0.49036-0.13053-0.18697-0.0741-0.29633-0.19755-0.10583-0.127-0.10583-0.32456 0-0.20461 0.10583-0.35983 0.10936-0.15522 0.30339-0.23989 0.19756-0.0847 0.45508-0.0847 0.24694 0 0.45156 0.10584 0.20814 0.1023 0.32808 0.28928 0.11994 0.18697 0.11994 0.42686h-0.13053q0-0.20814-0.10231-0.36689-0.1023-0.15875-0.27869-0.24342-0.17639-0.0882-0.39158-0.0882-0.1905 0-0.3563 0.06-0.16581 0.06-0.27164 0.18344-0.10231 0.12348-0.10231 0.31045 0 0.16933 0.09878 0.27164 0.09878 0.0988 0.25753 0.15169 0.15875 0.0529 0.4445 0.11289 0.28928 0.06 0.44803 0.11642 0.16228 0.0529 0.27164 0.17991 0.11289 0.127 0.11289 0.35631 0 0.2293-0.12347 0.38805-0.11994 0.15523-0.32103 0.23284-0.20108 0.0776-0.43744 0.0776-0.29281 0-0.51506-0.10936t-0.34219-0.30692q-0.11642-0.20108-0.11642-0.45861h0.13053q0 0.22578 0.09878 0.39511 0.1023 0.16933 0.2928 0.26458 0.1905 0.0917 0.45156 0.0917 0.32456 0 0.53622-0.15523 0.2152-0.15522 0.2152-0.42333 0-0.18344-0.09172-0.28222-0.09172-0.0988-0.23283-0.14111-0.13758-0.0459-0.41628-0.10231z"/>
</g>
<g aria-label="ADVANCED SAMPLER">
<path d="m10.147 7.0612h-0.60634l-0.1757-0.54949h-0.8785l-0.17398 0.54949h-0.60289l0.89917-2.4701h0.65974zm-0.90951-0.97668-0.26527-0.83027q-0.029283-0.093018-0.041341-0.22221h-0.01378q-0.0086131 0.10852-0.043064 0.21532l-0.26872 0.83716z"/>
<path d="m11.307 7.0612v-2.4701h0.87506q1.316 0 1.316 1.2041 0 0.57705-0.36001 0.92156-0.35829 0.34451-0.95601 0.34451zm0.55638-2.0171v1.5658h0.27561q0.36174 0 0.56672-0.21704 0.20671-0.21704 0.20671-0.59083 0-0.35312-0.20498-0.55466-0.20326-0.20326-0.57189-0.20326z"/>
<path d="m16.82 4.5911-0.85094 2.4701h-0.63045l-0.8406-2.4701h0.59945l0.51504 1.7191q0.04134 0.13953 0.04995 0.24632h0.01033q0.01206-0.11541 0.0534-0.25321l0.5116-1.7122z"/>
<path d="m20.144 7.0612h-0.60634l-0.1757-0.54949h-0.8785l-0.17398 0.54949h-0.60289l0.89917-2.4701h0.65974zm-0.9095-0.97668-0.26527-0.83027q-0.02928-0.093018-0.04134-0.22221h-0.01378q-0.008615 0.10852-0.043066 0.21532l-0.26872 0.83716z"/>
<path d="m23.527 7.0612h-0.56155l-1.018-1.552q-0.089573-0.13608-0.12402-0.20498h-0.0069q0.01378 0.13091 0.01378 0.39963v1.3574h-0.52537v-2.4701h0.59945l0.98013 1.5038q0.06718 0.10163 0.12402 0.20154h0.0069q-0.01379-0.086127-0.01379-0.33934v-1.366h0.52538z"/>
<path d="m26.718 6.9734q-0.27044 0.13091-0.70624 0.13091-0.56844 0-0.894-0.33417-0.32556-0.33417-0.32556-0.89056 0-0.59256 0.36518-0.96118 0.3669-0.36863 0.95085-0.36863 0.36174 0 0.60978 0.091295v0.53571q-0.24805-0.14814-0.565-0.14814-0.34795 0-0.56155 0.21876-0.2136 0.21876-0.2136 0.59256 0 0.35829 0.20154 0.57189 0.20154 0.21187 0.5426 0.21187 0.32556 0 0.596-0.15847z"/>
<path d="m29.485 7.0612h-1.4814v-2.4701h1.4245v0.45303h-0.86816v0.54949h0.80788v0.45131h-0.80788v0.565h0.92501z"/>
<path d="m30.737 7.0612v-2.4701h0.87505q1.316 0 1.316 1.2041 0 0.57705-0.36001 0.92156-0.35829 0.34451-0.95601 0.34451zm0.55638-2.0171v1.5658h0.27561q0.36174 0 0.56672-0.21704 0.20671-0.21704 0.20671-0.59083 0-0.35312-0.20498-0.55466-0.20326-0.20326-0.57189-0.20326z"/>
<path d="m7.8571 11.376v-0.55122q0.14986 0.12575 0.32556 0.18948 0.1757 0.06201 0.35484 0.06201 0.10508 0 0.18259-0.01895 0.079237-0.01895 0.13091-0.05168 0.053399-0.03445 0.079237-0.07924 0.025838-0.04651 0.025838-0.09991 0-0.07235-0.041341-0.12919-0.041341-0.05684-0.11369-0.10508-0.070625-0.04823-0.16881-0.09302-0.098185-0.04479-0.21187-0.0913-0.28939-0.12056-0.43236-0.29454-0.14125-0.17398-0.14125-0.4203 0-0.19293 0.077515-0.33073 0.077515-0.13953 0.21015-0.2291 0.13436-0.089572 0.31006-0.13091 0.1757-0.043064 0.37207-0.043064 0.19293 0 0.34106 0.024116 0.14986 0.022393 0.27561 0.070624v0.51504q-0.062012-0.043064-0.13608-0.075792-0.072347-0.032728-0.14986-0.053399-0.077515-0.022393-0.15503-0.032728-0.075792-0.010335-0.14469-0.010335-0.09474 0-0.17225 0.018948-0.077515 0.017225-0.13091 0.049954-0.053399 0.032728-0.082682 0.079237-0.029283 0.044786-0.029283 0.10163 0 0.062012 0.032728 0.11197 0.032728 0.048231 0.093018 0.093018 0.060289 0.043064 0.14642 0.086127 0.086127 0.041341 0.19465 0.086128 0.14814 0.06201 0.26527 0.13264 0.11886 0.0689 0.20326 0.15675 0.084405 0.08785 0.12919 0.20154 0.044786 0.11196 0.044786 0.26183 0 0.20671-0.079237 0.34796-0.077515 0.13953-0.21187 0.22738-0.13436 0.08613-0.3135 0.12402-0.17742 0.0379-0.37552 0.0379-0.20326 0-0.38757-0.03445-0.18259-0.03445-0.31695-0.10335z"/>
<path d="m13.684 11.471h-0.60634l-0.1757-0.54949h-0.8785l-0.17398 0.54949h-0.60289l0.89917-2.4701h0.65974zm-0.9095-0.97668-0.26527-0.83027q-0.02928-0.093018-0.04134-0.22221h-0.01378q-0.0086 0.10852-0.04306 0.21532l-0.26872 0.83716z"/>
<path d="m18.371 11.471h-0.54949v-1.4779q0-0.23943 0.02067-0.52882h-0.01378q-0.04306 0.22738-0.07751 0.32728l-0.57878 1.6795h-0.45475l-0.58911-1.6623q-0.02412-0.067179-0.07751-0.34451h-0.0155q0.02239 0.36518 0.02239 0.64079v1.366h-0.50127v-2.4701h0.81476l0.50471 1.4642q0.06029 0.1757 0.08785 0.35312h0.01034q0.04651-0.20498 0.09819-0.35657l0.50471-1.4607h0.7941z"/>
<path d="m21.052 10.62v0.85094h-0.55638v-2.4701h0.87161q0.93362 0 0.93362 0.7872 0 0.37207-0.26872 0.60289-0.267 0.2291-0.71486 0.2291zm0-1.192v0.76998h0.21876q0.44442 0 0.44442-0.3893 0-0.38068-0.44442-0.38068z"/>
<path d="m25.701 11.471h-1.4711v-2.4701h0.55638v2.0188h0.91467z"/>
<path d="m29.08 11.471h-1.4814v-2.4701h1.4245v0.45303h-0.86816v0.54949h0.80788v0.45131h-0.80788v0.565h0.92501z"/>
<path d="m33.116 11.471h-0.63907l-0.38413-0.63562q-0.04306-0.07235-0.08268-0.12919-0.03962-0.05684-0.08096-0.09646-0.03962-0.04134-0.08441-0.06201-0.04306-0.02239-0.09474-0.02239h-0.14986v0.94568h-0.55638v-2.4701h0.88194q0.89917 0 0.89917 0.67179 0 0.12919-0.03962 0.23943-0.03962 0.10852-0.11197 0.19637-0.07235 0.08785-0.1757 0.15158-0.10163 0.06373-0.22738 0.09991v0.0069q0.05512 0.01723 0.1068 0.05684 0.05168 0.0379 0.09991 0.08957 0.04823 0.05168 0.0913 0.11197 0.04479 0.05857 0.08096 0.11541zm-1.5158-2.0533v0.6873h0.24116q0.17914 0 0.28767-0.10335 0.11024-0.10508 0.11024-0.26011 0-0.32384-0.38757-0.32384z"/>
</g>
<g aria-label="SAMPLE">
<path d="m0.36091 76.47v-0.38585q0.1049 0.08802 0.22789 0.13264 0.12299 0.04341 0.24839 0.04341 0.073553 0 0.12781-0.01326 0.055466-0.01326 0.09164-0.03617 0.037379-0.02412 0.055466-0.05547 0.018087-0.03256 0.018087-0.06994 0-0.05064-0.028939-0.09043t-0.079582-0.07355q-0.049437-0.03376-0.11817-0.06511-0.06873-0.03135-0.14831-0.06391-0.20257-0.0844-0.30265-0.20619-0.098874-0.12178-0.098874-0.29421 0-0.13505 0.05426-0.23151 0.05426-0.09767 0.14711-0.16037 0.094051-0.0627 0.21704-0.09164 0.12299-0.03014 0.26045-0.03014 0.13505 0 0.23875 0.01688 0.1049 0.01568 0.19293 0.04944v0.36053q-0.043408-0.03014-0.095257-0.05305-0.050643-0.02291-0.1049-0.03738-0.05426-0.01568-0.10852-0.02291-0.053055-0.0072-0.10129-0.0072-0.066318 0-0.12058 0.01326-0.05426 0.01206-0.09164 0.03497-0.037379 0.02291-0.057878 0.05547-0.020498 0.03135-0.020498 0.07114 0 0.04341 0.02291 0.07838 0.02291 0.03376 0.065112 0.06511 0.042202 0.03014 0.10249 0.06029 0.060289 0.02894 0.13625 0.06029 0.1037 0.04341 0.18569 0.09285 0.083199 0.04823 0.14228 0.10973 0.059083 0.0615 0.090434 0.14108 0.03135 0.07838 0.03135 0.18328 0 0.14469-0.055466 0.24357-0.05426 0.09767-0.14831 0.15916-0.094051 0.06029-0.21945 0.08682-0.1242 0.02653-0.26286 0.02653-0.14228 0-0.2713-0.02412-0.12781-0.02412-0.22186-0.07235z"/>
<path d="m3.3452 76.536h-0.42444l-0.12299-0.38464h-0.61495l-0.12178 0.38464h-0.42202l0.62942-1.7291h0.46182zm-0.63665-0.68368-0.18569-0.58119q-0.020498-0.06511-0.028939-0.15555h-0.00965q-0.00603 0.07596-0.030145 0.15072l-0.1881 0.58601z"/>
<path d="m5.5313 76.536h-0.38464v-1.0346q0-0.1676 0.014469-0.37018h-0.00965q-0.030145 0.15916-0.05426 0.2291l-0.40514 1.1756h-0.31833l-0.41238-1.1636q-0.016881-0.04703-0.05426-0.24116h-0.010852q0.015675 0.25563 0.015675 0.44855v0.95619h-0.35088v-1.7291h0.57034l0.35329 1.0249q0.042202 0.12299 0.061495 0.24718h0.00723q0.032556-0.14349 0.06873-0.2496l0.35329-1.0225h0.55587z"/>
<path d="m6.3139 75.94v0.59566h-0.38947v-1.7291h0.61013q0.65353 0 0.65353 0.55104 0 0.26045-0.1881 0.42202-0.1869 0.16037-0.5004 0.16037zm0-0.8344v0.53898h0.15313q0.31109 0 0.31109-0.27251 0-0.26648-0.31109-0.26648z"/>
<path d="m8.4734 76.536h-1.0297v-1.7291h0.38947v1.4132h0.64027z"/>
<path d="m9.7443 76.536h-1.037v-1.7291h0.99718v0.31712h-0.60771v0.38464h0.56551v0.31592h-0.56551v0.3955h0.64751z"/>
</g>
<g aria-label="AUDIO OUT">
<path d="m28.232 106.05h-0.42444l-0.12299-0.38465h-0.61495l-0.12178 0.38465h-0.42202l0.62942-1.7291h0.46182zm-0.63665-0.68368-0.18569-0.58119q-0.0205-0.0651-0.02894-0.15555h-0.0096q-6e-3 0.076-0.03014 0.15073l-0.1881 0.58601z"/>
<path d="m29.858 105.3q0 0.77894-0.72588 0.77894-0.70418 0-0.70418-0.76085v-0.99839h0.39067v1.0032q0 0.41962 0.32797 0.41962 0.32194 0 0.32194-0.40515v-1.0177h0.38947z"/>
<path d="m30.233 106.05v-1.7291h0.61254q0.92122 0 0.92122 0.84285 0 0.40393-0.25201 0.64509-0.2508 0.24116-0.66921 0.24116zm0.38947-1.412v1.0961h0.19293q0.25321 0 0.3967-0.15193 0.14469-0.15193 0.14469-0.41358 0-0.24719-0.14349-0.38826-0.14228-0.14229-0.40032-0.14229z"/>
<path d="m32.445 106.05h-0.38947v-1.7291h0.38947z"/>
<path d="m33.568 106.08q-0.37138 0-0.6053-0.24116-0.23392-0.24236-0.23392-0.63062 0-0.40997 0.23754-0.66318 0.23754-0.25322 0.62942-0.25322 0.37018 0 0.59807 0.24237 0.2291 0.24236 0.2291 0.63906 0 0.40756-0.23754 0.65715-0.23633 0.2496-0.61736 0.2496zm0.01688-1.453q-0.20498 0-0.32556 0.15434-0.12058 0.15314-0.12058 0.40635 0 0.25683 0.12058 0.40635t0.31592 0.14952q0.20137 0 0.31953-0.1447 0.11817-0.1459 0.11817-0.40393 0-0.26889-0.11455-0.41841-0.11455-0.14952-0.3135-0.14952z"/>
<path d="m28.89 108.55q-0.37138 0-0.6053-0.24116-0.23392-0.24236-0.23392-0.63063 0-0.40996 0.23754-0.66318 0.23754-0.25321 0.62942-0.25321 0.37018 0 0.59807 0.24236 0.2291 0.24236 0.2291 0.63907 0 0.40755-0.23754 0.65715-0.23633 0.2496-0.61736 0.2496zm0.01688-1.453q-0.20498 0-0.32556 0.15434-0.12058 0.15313-0.12058 0.40635 0 0.25683 0.12058 0.40634 0.12058 0.14952 0.31592 0.14952 0.20137 0 0.31953-0.14469 0.11817-0.1459 0.11817-0.40394 0-0.26889-0.11455-0.41841-0.11455-0.14951-0.3135-0.14951z"/>
<path d="m31.44 107.77q0 0.77894-0.72588 0.77894-0.70418 0-0.70418-0.76085v-0.99839h0.39067v1.0032q0 0.41961 0.32797 0.41961 0.32194 0 0.32194-0.40514v-1.0177h0.38947z"/>
<path d="m33.029 107.11h-0.49316v1.412h-0.39067v-1.412h-0.49075v-0.31712h1.3746z"/>
</g>
<g aria-label="START">
<path d="m1.3529 91.528v-0.38585q0.1049 0.08802 0.22789 0.13264 0.12299 0.04341 0.24839 0.04341 0.073553 0 0.12781-0.01326 0.055466-0.01326 0.09164-0.03617 0.037379-0.02412 0.055466-0.05547 0.018087-0.03256 0.018087-0.06994 0-0.05064-0.028939-0.09043t-0.079582-0.07355q-0.049437-0.03376-0.11817-0.06511-0.06873-0.03135-0.14831-0.06391-0.20257-0.0844-0.30265-0.20619-0.098874-0.12178-0.098874-0.29421 0-0.13505 0.05426-0.23151 0.05426-0.09767 0.14711-0.16037 0.094051-0.0627 0.21704-0.09164 0.12299-0.03014 0.26045-0.03014 0.13505 0 0.23875 0.01688 0.1049 0.01568 0.19293 0.04944v0.36053q-0.043408-0.03014-0.095257-0.05306-0.050643-0.02291-0.1049-0.03738-0.05426-0.01568-0.10852-0.02291-0.053055-0.0072-0.10129-0.0072-0.066318 0-0.12058 0.01326-0.05426 0.01206-0.09164 0.03497-0.037379 0.02291-0.057878 0.05547-0.020498 0.03135-0.020498 0.07114 0 0.04341 0.02291 0.07838 0.02291 0.03376 0.065112 0.06511 0.042203 0.03015 0.10249 0.06029 0.060289 0.02894 0.13625 0.06029 0.1037 0.04341 0.18569 0.09285 0.083199 0.04823 0.14228 0.10973 0.059083 0.0615 0.090434 0.14108 0.03135 0.07838 0.03135 0.18328 0 0.14469-0.055466 0.24357-0.05426 0.09767-0.14831 0.15916-0.094051 0.06029-0.21945 0.08682-0.1242 0.02653-0.26286 0.02653-0.14228 0-0.2713-0.02411-0.12781-0.02412-0.22186-0.07235z"/>
<path d="m4.031 90.183h-0.49317v1.412h-0.39067v-1.412h-0.49075v-0.31712h1.3746z"/>
<path d="m5.7842 91.594h-0.42444l-0.12299-0.38464h-0.61495l-0.12178 0.38464h-0.42202l0.62942-1.7291h0.46182zm-0.63665-0.68368-0.18569-0.58119q-0.020498-0.06511-0.028939-0.15555h-0.00965q-0.00603 0.07596-0.030144 0.15072l-0.1881 0.58601z"/>
<path d="m7.4506 91.594h-0.44735l-0.26889-0.44493q-0.030145-0.05064-0.057878-0.09043t-0.056672-0.06752q-0.027733-0.02894-0.059083-0.04341-0.030145-0.01568-0.066318-0.01568h-0.1049v0.66198h-0.38947v-1.7291h0.61736q0.62942 0 0.62942 0.47026 0 0.09043-0.027733 0.1676-0.027733 0.07596-0.078376 0.13746-0.050643 0.0615-0.12299 0.10611-0.071141 0.04461-0.15916 0.06994v0.0048q0.038585 0.01206 0.074759 0.03979 0.036174 0.02653 0.069935 0.0627 0.033762 0.03617 0.063907 0.07838 0.03135 0.041 0.056672 0.08079zm-1.0611-1.4373v0.48111h0.16881q0.1254 0 0.20137-0.07235 0.07717-0.07355 0.07717-0.18207 0-0.22669-0.2713-0.22669z"/>
<path d="m8.8252 90.183h-0.49317v1.412h-0.39067v-1.412h-0.49075v-0.31712h1.3746z"/>
</g>
<g aria-label="END">
<path d="m13.896 91.594h-1.037v-1.7291h0.99718v0.31712h-0.60772v0.38464h0.56551v0.31592h-0.56551v0.3955h0.64751z"/>
<path d="m15.731 91.594h-0.39308l-0.71262-1.0864q-0.0627-0.09526-0.08682-0.14349h-0.0048q0.0096 0.09164 0.0096 0.27974v0.95016h-0.36776v-1.7291h0.41961l0.68609 1.0526q0.04703 0.07114 0.08682 0.14108h0.0048q-0.0096-0.06029-0.0096-0.23754v-0.95619h0.36776z"/>
<path d="m16.129 91.594v-1.7291h0.61254q0.92122 0 0.92122 0.84284 0 0.40394-0.25201 0.64509-0.2508 0.24116-0.66921 0.24116zm0.38947-1.412v1.0961h0.19292q0.25322 0 0.3967-0.15193 0.14469-0.15193 0.14469-0.41358 0-0.24719-0.14349-0.38826-0.14228-0.14228-0.40032-0.14228z"/>
</g>
<g aria-label="TUNE">
<path d="m13.316 75.123h-0.49317v1.412h-0.39067v-1.412h-0.49075v-0.31712h1.3746z"/>
<path d="m14.958 75.787q0 0.77894-0.72588 0.77894-0.70418 0-0.70418-0.76085v-0.99839h0.39067v1.0032q0 0.41961 0.32797 0.41961 0.32194 0 0.32194-0.40514v-1.0177h0.38947z"/>
<path d="m16.889 76.535h-0.39308l-0.71262-1.0864q-0.0627-0.09526-0.08682-0.14349h-0.0048q0.0096 0.09164 0.0096 0.27974v0.95016h-0.36776v-1.7291h0.41961l0.68609 1.0526q0.04702 0.07114 0.08682 0.14108h0.0048q-0.0096-0.06029-0.0096-0.23754v-0.95619h0.36776z"/>
<path d="m18.324 76.535h-1.037v-1.7291h0.99718v0.31712h-0.60771v0.38464h0.56551v0.31592h-0.56551v0.3955h0.6475z"/>
</g>
<g aria-label="ATTACK">
<path d="m22.277 76.535h-0.42444l-0.12299-0.38464h-0.61495l-0.12178 0.38464h-0.42202l0.62942-1.7291h0.46182zm-0.63665-0.68368-0.18569-0.58119q-0.0205-0.06511-0.02894-0.15555h-0.0096q-6e-3 0.07597-0.03015 0.15072l-0.1881 0.58601z"/>
<path d="m23.707 75.123h-0.49316v1.412h-0.39067v-1.412h-0.49075v-0.31712h1.3746z"/>
<path d="m25.154 75.123h-0.49316v1.412h-0.39067v-1.412h-0.49075v-0.31712h1.3746z"/>
<path d="m26.908 76.535h-0.42444l-0.12299-0.38464h-0.61495l-0.12178 0.38464h-0.42202l0.62942-1.7291h0.46182zm-0.63665-0.68368-0.18569-0.58119q-0.0205-0.06511-0.02894-0.15555h-0.0096q-6e-3 0.07597-0.03014 0.15072l-0.1881 0.58601z"/>
<path d="m28.363 76.474q-0.18931 0.09164-0.49437 0.09164-0.39791 0-0.6258-0.23392t-0.22789-0.62339q0-0.41479 0.25563-0.67283 0.25683-0.25804 0.66559-0.25804 0.25321 0 0.42685 0.06391v0.375q-0.17363-0.1037-0.3955-0.1037-0.24357 0-0.39308 0.15313-0.14952 0.15314-0.14952 0.41479 0 0.2508 0.14108 0.40032 0.14108 0.14831 0.37982 0.14831 0.22789 0 0.4172-0.11093z"/>
<path d="m30.104 76.535h-0.49196l-0.50402-0.7512q-0.01447-0.0217-0.04582-0.09526h-6e-3v0.84646h-0.38947v-1.7291h0.38947v0.81752h6e-3q0.01447-0.03376 0.04823-0.09646l0.47749-0.72106h0.46423l-0.60289 0.82476z"/>
</g>
<g aria-label="DECAY">
<path d="m31.713 76.535v-1.7291h0.61254q0.92122 0 0.92122 0.84284 0 0.40394-0.25201 0.6451-0.2508 0.24116-0.66921 0.24116zm0.38947-1.412v1.0961h0.19292q0.25322 0 0.3967-0.15193 0.14469-0.15193 0.14469-0.41358 0-0.24719-0.14349-0.38826-0.14228-0.14228-0.40032-0.14228z"/>
<path d="m34.573 76.535h-1.037v-1.7291h0.99718v0.31712h-0.60772v0.38464h0.56551v0.31592h-0.56551v0.3955h0.6475z"/>
<path d="m36.092 76.474q-0.18931 0.09164-0.49437 0.09164-0.39791 0-0.6258-0.23392t-0.22789-0.62339q0-0.41479 0.25563-0.67283 0.25683-0.25804 0.66559-0.25804 0.25322 0 0.42685 0.06391v0.375q-0.17363-0.1037-0.3955-0.1037-0.24357 0-0.39309 0.15313-0.14952 0.15314-0.14952 0.41479 0 0.2508 0.14108 0.40032 0.14108 0.14831 0.37982 0.14831 0.22789 0 0.4172-0.11093z"/>
<path d="m37.916 76.535h-0.42444l-0.12299-0.38464h-0.61495l-0.12178 0.38464h-0.42202l0.62942-1.7291h0.46182zm-0.63665-0.68368-0.18569-0.58119q-0.0205-0.06511-0.02894-0.15555h-0.0096q-6e-3 0.07597-0.03014 0.15072l-0.1881 0.58601z"/>
<path d="m39.436 74.806-0.5631 1.1141v0.61495h-0.38947v-0.60772l-0.54863-1.1214h0.44493l0.27854 0.64509q0.0072 0.01809 0.03979 0.14108h0.0048q0.01568-0.08682 0.03738-0.13625l0.28336-0.64992z"/>
</g>
<g transform="translate(-5.08 1.2545)" aria-label="PLAY">
<path d="m17.812 28.254v0.59566h-0.38947v-1.7291h0.61013q0.65354 0 0.65354 0.55104 0 0.26045-0.1881 0.42202-0.1869 0.16037-0.5004 0.16037zm0-0.8344v0.53899h0.15313q0.31109 0 0.31109-0.27251 0-0.26648-0.31109-0.26648z"/>
<path d="m19.972 28.85h-1.0297v-1.7291h0.38947v1.4132h0.64027z"/>
<path d="m21.726 28.85h-0.42444l-0.12299-0.38464h-0.61495l-0.12178 0.38464h-0.42202l0.62942-1.7291h0.46182zm-0.63665-0.68368-0.18569-0.58119q-0.0205-0.06511-0.02894-0.15555h-0.0096q-6e-3 0.07596-0.03014 0.15072l-0.1881 0.58601z"/>
<path d="m23.246 27.121-0.5631 1.1141v0.61495h-0.38947v-0.60772l-0.54863-1.1214h0.44493l0.27854 0.64509q0.0072 0.01809 0.03979 0.14108h0.0048q0.01568-0.08682 0.03738-0.13625l0.28336-0.64992z"/>
</g>
<g transform="translate(2.54 1.2545)" aria-label="REC">
<path d="m32.348 28.85h-0.44735l-0.26889-0.44493q-0.03015-0.05064-0.05788-0.09043t-0.05667-0.06752q-0.02773-0.02894-0.05908-0.04341-0.03015-0.01567-0.06632-0.01567h-0.1049v0.66198h-0.38947v-1.7291h0.61736q0.62942 0 0.62942 0.47026 0 0.09043-0.02773 0.1676-0.02773 0.07596-0.07838 0.13746-0.05064 0.0615-0.12299 0.10611-0.07114 0.04461-0.15916 0.06994v0.0048q0.03859 0.01206 0.07476 0.03979 0.03617 0.02653 0.06994 0.0627 0.03376 0.03617 0.06391 0.07838 0.03135 0.041 0.05667 0.08079zm-1.0611-1.4373v0.48111h0.16881q0.1254 0 0.20137-0.07235 0.07717-0.07355 0.07717-0.18207 0-0.22669-0.2713-0.22669z"/>
<path d="m33.545 28.85h-1.037v-1.7291h0.99718v0.31712h-0.60772v0.38464h0.56551v0.31592h-0.56551v0.3955h0.64751z"/>
<path d="m35.064 28.788q-0.18931 0.09164-0.49437 0.09164-0.39791 0-0.6258-0.23392t-0.22789-0.62339q0-0.41479 0.25563-0.67283 0.25683-0.25804 0.66559-0.25804 0.25321 0 0.42685 0.06391v0.375q-0.17363-0.1037-0.3955-0.1037-0.24357 0-0.39308 0.15314-0.14952 0.15313-0.14952 0.41479 0 0.2508 0.14108 0.40032 0.14108 0.14831 0.37982 0.14831 0.22789 0 0.4172-0.11093z"/>
</g>
<g transform="translate(-2.54 1.2545)" aria-label="LOAD">
<path d="m5.4148 28.85h-1.0297v-1.7291h0.38947v1.4132h0.64027z"/>
<path d="m6.3794 28.88q-0.37138 0-0.6053-0.24116-0.23392-0.24236-0.23392-0.63062 0-0.40997 0.23754-0.66318 0.23754-0.25322 0.62942-0.25322 0.37018 0 0.59807 0.24236 0.2291 0.24236 0.2291 0.63906 0 0.40756-0.23754 0.65715-0.23633 0.2496-0.61736 0.2496zm0.016881-1.453q-0.20498 0-0.32556 0.15434-0.12058 0.15314-0.12058 0.40635 0 0.25683 0.12058 0.40635 0.12058 0.14952 0.31592 0.14952 0.20137 0 0.31953-0.14469 0.11817-0.1459 0.11817-0.40394 0-0.26889-0.11455-0.41841-0.11455-0.14952-0.3135-0.14952z"/>
<path d="m9.0406 28.85h-0.42444l-0.12299-0.38464h-0.61495l-0.12178 0.38464h-0.42202l0.62942-1.7291h0.46182zm-0.63665-0.68368-0.18569-0.58119q-0.020498-0.06511-0.028939-0.15555h-0.00965q-0.00603 0.07596-0.030145 0.15072l-0.1881 0.58601z"/>
<path d="m9.2564 28.85v-1.7291h0.61254q0.92122 0 0.92122 0.84284 0 0.40394-0.25201 0.64509-0.2508 0.24116-0.66921 0.24116zm0.38947-1.412v1.0961h0.19293q0.25322 0 0.3967-0.15193 0.14469-0.15193 0.14469-0.41358 0-0.24719-0.14349-0.38826-0.14228-0.14228-0.40032-0.14228z"/>
</g>
<g aria-label="REC">
<path d="m34.909 91.841h-0.44734l-0.26889-0.44493q-0.03015-0.05064-0.05788-0.09043t-0.05667-0.06752q-0.02773-0.02894-0.05908-0.04341-0.03014-0.01568-0.06632-0.01568h-0.1049v0.66198h-0.38947v-1.7291h0.61736q0.62942 0 0.62942 0.47026 0 0.09043-0.02773 0.1676-0.02773 0.07597-0.07838 0.13746-0.05064 0.0615-0.12299 0.10611-0.07114 0.04461-0.15916 0.06994v0.0048q0.03858 0.01206 0.07476 0.03979 0.03617 0.02653 0.06994 0.0627 0.03376 0.03617 0.06391 0.07838 0.03135 0.041 0.05667 0.08079zm-1.0611-1.4373v0.48111h0.16881q0.1254 0 0.20136-0.07235 0.07717-0.07355 0.07717-0.18207 0-0.22669-0.2713-0.22669z"/>
<path d="m36.106 91.841h-1.037v-1.7291h0.99718v0.31712h-0.60772v0.38464h0.56551v0.31592h-0.56551v0.3955h0.6475z"/>
<path d="m37.626 91.779q-0.18931 0.09164-0.49437 0.09164-0.39791 0-0.6258-0.23392t-0.22789-0.62339q0-0.41479 0.25563-0.67283 0.25683-0.25804 0.66559-0.25804 0.25322 0 0.42685 0.06391v0.375q-0.17363-0.1037-0.3955-0.1037-0.24357 0-0.39309 0.15313-0.14952 0.15314-0.14952 0.41479 0 0.2508 0.14108 0.40032 0.14108 0.14831 0.37982 0.14831 0.22789 0 0.4172-0.11093z"/>
</g>
<g aria-label="PLAY">
<path d="m7.7882 106.18v0.59566h-0.38947v-1.7291h0.61013q0.65353 0 0.65353 0.55105 0 0.26045-0.1881 0.42202-0.1869 0.16037-0.5004 0.16037zm0-0.8344v0.53898h0.15313q0.31109 0 0.31109-0.2725 0-0.26648-0.31109-0.26648z"/>
<path d="m9.9478 106.78h-1.0297v-1.7291h0.38947v1.4132h0.64027z"/>
<path d="m11.702 106.78h-0.42444l-0.12299-0.38465h-0.61495l-0.12178 0.38465h-0.42202l0.62942-1.7291h0.46182zm-0.63665-0.68368-0.18569-0.58119q-0.0205-0.0651-0.02894-0.15555h-0.0096q-6e-3 0.076-0.03014 0.15073l-0.1881 0.58601z"/>
<path d="m13.221 105.05-0.5631 1.1142v0.61495h-0.38947v-0.60772l-0.54863-1.1214h0.44494l0.27854 0.6451q0.0072 0.0181 0.03979 0.14107h0.0048q0.01567-0.0868 0.03738-0.13625l0.28336-0.64992z"/>
</g>
<g aria-label="TUNE">
<path d="m18.5 39.974h-0.49316v1.412h-0.39067v-1.412h-0.49075v-0.31712h1.3746z"/>
<path d="m20.143 40.637q0 0.77894-0.72588 0.77894-0.70418 0-0.70418-0.76085v-0.99839h0.39067v1.0032q0 0.41961 0.32797 0.41961 0.32194 0 0.32194-0.40514v-1.0177h0.38947z"/>
<path d="m22.073 41.386h-0.39308l-0.71262-1.0864q-0.0627-0.09526-0.08682-0.14349h-0.0048q0.0096 0.09164 0.0096 0.27974v0.95016h-0.36776v-1.7291h0.41961l0.68609 1.0526q0.04703 0.07114 0.08682 0.14108h0.0048q-0.0096-0.06029-0.0096-0.23754v-0.95619h0.36776z"/>
<path d="m23.508 41.386h-1.037v-1.7291h0.99718v0.31712h-0.60772v0.38464h0.56551v0.31592h-0.56551v0.3955h0.64751z"/>
</g>
<g aria-label="ATTACK">
<path d="m29.963 41.398h-0.42444l-0.12299-0.38464h-0.61495l-0.12178 0.38464h-0.42202l0.62942-1.7291h0.46182zm-0.63665-0.68368-0.18569-0.58119q-0.0205-0.06511-0.02894-0.15555h-0.0096q-6e-3 0.07596-0.03014 0.15072l-0.1881 0.58601z"/>
<path d="m31.393 39.986h-0.49317v1.412h-0.39067v-1.412h-0.49075v-0.31712h1.3746z"/>
<path d="m32.84 39.986h-0.49316v1.412h-0.39067v-1.412h-0.49075v-0.31712h1.3746z"/>
<path d="m34.593 41.398h-0.42444l-0.12299-0.38464h-0.61495l-0.12178 0.38464h-0.42202l0.62942-1.7291h0.46182zm-0.63665-0.68368-0.18569-0.58119q-0.0205-0.06511-0.02894-0.15555h-0.0096q-6e-3 0.07596-0.03015 0.15072l-0.1881 0.58601z"/>
<path d="m36.049 41.337q-0.18931 0.09164-0.49437 0.09164-0.39791 0-0.6258-0.23392t-0.22789-0.62339q0-0.41479 0.25563-0.67283 0.25683-0.25804 0.66559-0.25804 0.25322 0 0.42685 0.06391v0.375q-0.17363-0.1037-0.3955-0.1037-0.24357 0-0.39309 0.15313-0.14952 0.15314-0.14952 0.41479 0 0.2508 0.14108 0.40032 0.14108 0.14831 0.37982 0.14831 0.22789 0 0.4172-0.11093z"/>
<path d="m37.79 41.398h-0.49196l-0.50402-0.7512q-0.01447-0.0217-0.04582-0.09526h-6e-3v0.84646h-0.38947v-1.7291h0.38947v0.81752h6e-3q0.01447-0.03376 0.04823-0.09646l0.47749-0.72106h0.46423l-0.60289 0.82476z"/>
</g>
<g aria-label="DECAY">
<path d="m29.173 56.457v-1.7291h0.61254q0.92122 0 0.92122 0.84284 0 0.40394-0.25201 0.64509-0.2508 0.24116-0.66921 0.24116zm0.38947-1.412v1.0961h0.19292q0.25322 0 0.3967-0.15193 0.14469-0.15193 0.14469-0.41358 0-0.24719-0.14349-0.38826-0.14228-0.14228-0.40032-0.14228z"/>
<path d="m32.033 56.457h-1.037v-1.7291h0.99718v0.31712h-0.60771v0.38464h0.56551v0.31592h-0.56551v0.3955h0.6475z"/>
<path d="m33.552 56.396q-0.18931 0.09164-0.49437 0.09164-0.39791 0-0.6258-0.23392t-0.22789-0.62339q0-0.41479 0.25563-0.67283 0.25683-0.25804 0.66559-0.25804 0.25322 0 0.42685 0.06391v0.375q-0.17363-0.1037-0.3955-0.1037-0.24357 0-0.39309 0.15314-0.14952 0.15313-0.14952 0.41479 0 0.2508 0.14108 0.40032 0.14108 0.14831 0.37982 0.14831 0.22789 0 0.4172-0.11093z"/>
<path d="m35.376 56.457h-0.42444l-0.12299-0.38464h-0.61495l-0.12178 0.38464h-0.42202l0.62942-1.7291h0.46182zm-0.63665-0.68368-0.18569-0.58119q-0.0205-0.06511-0.02894-0.15555h-0.0096q-6e-3 0.07596-0.03014 0.15072l-0.1881 0.58601z"/>
<path d="m36.896 54.728-0.5631 1.1141v0.61495h-0.38947v-0.60772l-0.54863-1.1214h0.44494l0.27854 0.64509q0.0072 0.01809 0.03979 0.14108h0.0048q0.01568-0.08682 0.03738-0.13625l0.28336-0.64992z"/>
</g>
<g aria-label="SAMPLE">
<path d="m2.9009 41.332v-0.38585q0.1049 0.08802 0.22789 0.13264 0.12299 0.04341 0.24839 0.04341 0.073553 0 0.12781-0.01326 0.055466-0.01326 0.091639-0.03617 0.037379-0.02412 0.055466-0.05547 0.018087-0.03256 0.018087-0.06994 0-0.05064-0.028939-0.09043t-0.079582-0.07355q-0.049437-0.03376-0.11817-0.06511-0.06873-0.03135-0.14831-0.06391-0.20257-0.08441-0.30265-0.20619-0.098874-0.12178-0.098874-0.29421 0-0.13505 0.05426-0.23151 0.05426-0.09767 0.14711-0.16037 0.094051-0.0627 0.21704-0.09164 0.12299-0.03014 0.26045-0.03014 0.13505 0 0.23875 0.01688 0.1049 0.01568 0.19293 0.04944v0.36053q-0.043408-0.03015-0.095257-0.05305-0.050643-0.02291-0.1049-0.03738-0.05426-0.01568-0.10852-0.02291-0.053055-0.0072-0.10129-0.0072-0.066318 0-0.12058 0.01326-0.05426 0.01206-0.091639 0.03497t-0.057878 0.05547q-0.020498 0.03135-0.020498 0.07114 0 0.04341 0.02291 0.07838 0.02291 0.03376 0.065112 0.06511 0.042202 0.03014 0.10249 0.06029 0.060289 0.02894 0.13625 0.06029 0.1037 0.04341 0.18569 0.09285 0.083199 0.04823 0.14228 0.10973 0.059083 0.06149 0.090434 0.14108 0.03135 0.07838 0.03135 0.18328 0 0.14469-0.055466 0.24357-0.05426 0.09767-0.14831 0.15916-0.094051 0.06029-0.21945 0.08682-0.1242 0.02653-0.26286 0.02653-0.14228 0-0.2713-0.02412-0.12781-0.02412-0.22186-0.07235z"/>
<path d="m5.8852 41.398h-0.42444l-0.12299-0.38464h-0.61495l-0.12178 0.38464h-0.42202l0.62942-1.7291h0.46182zm-0.63665-0.68368-0.18569-0.58119q-0.020498-0.06511-0.028939-0.15555h-0.00965q-0.00603 0.07596-0.030145 0.15072l-0.1881 0.58601z"/>
<path d="m8.0713 41.398h-0.38464v-1.0346q0-0.1676 0.014469-0.37018h-0.00965q-0.030145 0.15916-0.05426 0.2291l-0.40514 1.1756h-0.31833l-0.41238-1.1636q-0.016881-0.047026-0.05426-0.24116h-0.010852q0.015675 0.25563 0.015675 0.44855v0.95619h-0.35088v-1.7291h0.57034l0.35329 1.0249q0.042202 0.12299 0.061495 0.24719h0.00723q0.032556-0.14349 0.06873-0.2496l0.3533-1.0225h0.55587z"/>
<path d="m8.8539 40.803v0.59566h-0.38947v-1.7291h0.61013q0.65353 0 0.65353 0.55104 0 0.26045-0.1881 0.42202-0.1869 0.16037-0.5004 0.16037zm0-0.8344v0.53898h0.15313q0.31109 0 0.31109-0.27251 0-0.26648-0.31109-0.26648z"/>
<path d="m11.013 41.398h-1.0297v-1.7291h0.38947v1.4132h0.64027z"/>
<path d="m12.284 41.398h-1.037v-1.7291h0.99718v0.31712h-0.60772v0.38464h0.56551v0.31592h-0.56551v0.3955h0.64751z"/>
</g>
<g aria-label="START">
<path d="m3.8929 56.391v-0.38585q0.1049 0.08802 0.22789 0.13264 0.12299 0.04341 0.24839 0.04341 0.073553 0 0.12781-0.01326 0.055466-0.01326 0.09164-0.03617 0.037379-0.02412 0.055466-0.05547 0.018087-0.03256 0.018087-0.06994 0-0.05064-0.028939-0.09043t-0.079582-0.07355q-0.049437-0.03376-0.11817-0.06511-0.06873-0.03135-0.14831-0.06391-0.20257-0.0844-0.30265-0.20619-0.098874-0.12178-0.098874-0.29421 0-0.13505 0.05426-0.23151 0.05426-0.09767 0.14711-0.16037 0.094051-0.0627 0.21704-0.09164 0.12299-0.03014 0.26045-0.03014 0.13505 0 0.23875 0.01688 0.1049 0.01568 0.19293 0.04944v0.36053q-0.043408-0.03014-0.095257-0.05306-0.050643-0.02291-0.1049-0.03738-0.05426-0.01567-0.10852-0.02291-0.053055-0.0072-0.10129-0.0072-0.066318 0-0.12058 0.01326-0.05426 0.01206-0.09164 0.03497-0.037379 0.02291-0.057878 0.05547-0.020498 0.03135-0.020498 0.07114 0 0.04341 0.02291 0.07838 0.02291 0.03376 0.065112 0.06511 0.042202 0.03014 0.10249 0.06029 0.060289 0.02894 0.13625 0.06029 0.1037 0.04341 0.18569 0.09284 0.083199 0.04823 0.14228 0.10973 0.059083 0.0615 0.090434 0.14108 0.03135 0.07838 0.03135 0.18328 0 0.14469-0.055466 0.24357-0.05426 0.09767-0.14831 0.15916-0.094051 0.06029-0.21945 0.08682-0.1242 0.02653-0.26286 0.02653-0.14228 0-0.2713-0.02411-0.12781-0.02412-0.22186-0.07235z"/>
<path d="m6.571 55.045h-0.49317v1.412h-0.39067v-1.412h-0.49075v-0.31712h1.3746z"/>
<path d="m8.3242 56.457h-0.42444l-0.12299-0.38464h-0.61495l-0.12178 0.38464h-0.42202l0.62942-1.7291h0.46182zm-0.63665-0.68368-0.18569-0.58119q-0.020498-0.06511-0.028939-0.15555h-0.00965q-0.00603 0.07596-0.030145 0.15072l-0.1881 0.58601z"/>
<path d="m9.9906 56.457h-0.44735l-0.26889-0.44493q-0.030145-0.05064-0.057878-0.09043t-0.056672-0.06752q-0.027733-0.02894-0.059083-0.04341-0.030145-0.01568-0.066318-0.01568h-0.1049v0.66198h-0.38947v-1.7291h0.61736q0.62942 0 0.62942 0.47026 0 0.09043-0.027733 0.1676-0.027733 0.07596-0.078376 0.13746-0.050643 0.0615-0.12299 0.10611-0.071141 0.04461-0.15916 0.06994v0.0048q0.038585 0.01206 0.074758 0.03979 0.036174 0.02653 0.069936 0.0627t0.063906 0.07838q0.03135 0.041 0.056672 0.08079zm-1.0611-1.4373v0.48111h0.16881q0.1254 0 0.20137-0.07235 0.07717-0.07355 0.07717-0.18207 0-0.22669-0.2713-0.22669z"/>
<path d="m11.365 55.045h-0.49317v1.412h-0.39067v-1.412h-0.49075v-0.31712h1.3746z"/>
</g>
<g aria-label="END">
<path d="m18.963 56.458h-1.037v-1.7291h0.99718v0.31712h-0.60771v0.38464h0.56551v0.31592h-0.56551v0.3955h0.6475z"/>
<path d="m20.798 56.458h-0.39309l-0.71262-1.0864q-0.0627-0.09526-0.08682-0.14349h-0.0048q0.0096 0.09164 0.0096 0.27974v0.95016h-0.36776v-1.7291h0.41961l0.68609 1.0526q0.04703 0.07114 0.08682 0.14108h0.0048q-0.0096-0.06029-0.0096-0.23754v-0.95619h0.36776z"/>
<path d="m21.196 56.458v-1.7291h0.61254q0.92122 0 0.92122 0.84284 0 0.40394-0.25201 0.64509-0.2508 0.24116-0.66921 0.24116zm0.38947-1.412v1.0961h0.19293q0.25321 0 0.3967-0.15193 0.14469-0.15193 0.14469-0.41358 0-0.24719-0.14349-0.38826-0.14228-0.14228-0.40032-0.14228z"/>
</g>
<g aria-label="EOC">
<path d="m19.131 106.9h-1.037v-1.7291h0.99718v0.31712h-0.60771v0.38465h0.56551v0.31591h-0.56551v0.3955h0.6475z"/>
<path d="m20.142 106.93q-0.37138 0-0.6053-0.24116-0.23392-0.24236-0.23392-0.63062 0-0.40997 0.23754-0.66318 0.23754-0.25322 0.62942-0.25322 0.37018 0 0.59807 0.24236 0.2291 0.24237 0.2291 0.63907 0 0.40755-0.23754 0.65715-0.23633 0.2496-0.61736 0.2496zm0.01688-1.453q-0.20498 0-0.32556 0.15434-0.12058 0.15313-0.12058 0.40635 0 0.25683 0.12058 0.40635 0.12058 0.14951 0.31592 0.14951 0.20137 0 0.31953-0.14469 0.11817-0.1459 0.11817-0.40394 0-0.26889-0.11455-0.4184-0.11455-0.14952-0.3135-0.14952z"/>
<path d="m22.522 106.84q-0.18931 0.0916-0.49437 0.0916-0.39791 0-0.6258-0.23392-0.22789-0.23393-0.22789-0.62339 0-0.41479 0.25563-0.67283 0.25683-0.25804 0.66559-0.25804 0.25321 0 0.42685 0.0639v0.375q-0.17363-0.1037-0.3955-0.1037-0.24357 0-0.39308 0.15313-0.14952 0.15314-0.14952 0.41479 0 0.25081 0.14108 0.40032 0.14108 0.14831 0.37982 0.14831 0.22789 0 0.4172-0.11093z"/>
</g>
<g aria-label="AUDIO IN">
<path d="m23.158 91.098h-0.42444l-0.12299-0.38464h-0.61495l-0.12178 0.38464h-0.42202l0.62942-1.7291h0.46182zm-0.63665-0.68368-0.18569-0.58119q-0.0205-0.06511-0.02894-0.15555h-0.0096q-6e-3 0.07596-0.03015 0.15072l-0.1881 0.58601z"/>
<path d="m24.783 90.349q0 0.77894-0.72588 0.77894-0.70418 0-0.70418-0.76085v-0.99839h0.39067v1.0032q0 0.41961 0.32797 0.41961 0.32194 0 0.32194-0.40514v-1.0177h0.38947z"/>
<path d="m25.158 91.098v-1.7291h0.61254q0.92122 0 0.92122 0.84284 0 0.40394-0.25201 0.64509-0.2508 0.24116-0.66921 0.24116zm0.38947-1.412v1.0961h0.19292q0.25322 0 0.3967-0.15193 0.14469-0.15193 0.14469-0.41358 0-0.24718-0.14349-0.38826-0.14228-0.14228-0.40032-0.14228z"/>
<path d="m27.371 91.098h-0.38947v-1.7291h0.38947z"/>
<path d="m28.493 91.128q-0.37138 0-0.6053-0.24116-0.23392-0.24236-0.23392-0.63062 0-0.40997 0.23754-0.66318 0.23754-0.25321 0.62942-0.25321 0.37018 0 0.59807 0.24236 0.2291 0.24236 0.2291 0.63906 0 0.40756-0.23754 0.65715-0.23633 0.2496-0.61736 0.2496zm0.01688-1.453q-0.20498 0-0.32556 0.15434-0.12058 0.15313-0.12058 0.40635 0 0.25683 0.12058 0.40635 0.12058 0.14952 0.31592 0.14952 0.20136 0 0.31953-0.14469 0.11817-0.1459 0.11817-0.40394 0-0.26889-0.11455-0.41841-0.11455-0.14952-0.3135-0.14952z"/>
<path d="m24.658 93.567h-0.38947v-1.7291h0.38947z"/>
<path d="m26.605 93.567h-0.39308l-0.71262-1.0864q-0.0627-0.09526-0.08682-0.14349h-0.0048q0.0096 0.09164 0.0096 0.27974v0.95016h-0.36774v-1.7291h0.41961l0.68609 1.0526q0.04703 0.07114 0.08682 0.14108h0.0048q-0.0096-0.06029-0.0096-0.23754v-0.95619h0.36776z"/>
</g>
<g transform="translate(0 1.2545)" aria-label="LOOP">
<path d="m23.279 28.85h-1.0297v-1.7291h0.38947v1.4132h0.64027z"/>
<path d="m24.244 28.88q-0.37138 0-0.6053-0.24116-0.23392-0.24236-0.23392-0.63062 0-0.40997 0.23754-0.66318 0.23754-0.25322 0.62942-0.25322 0.37018 0 0.59807 0.24236 0.2291 0.24236 0.2291 0.63906 0 0.40756-0.23754 0.65715-0.23633 0.2496-0.61736 0.2496zm0.01688-1.453q-0.20498 0-0.32556 0.15434-0.12058 0.15314-0.12058 0.40635 0 0.25683 0.12058 0.40635 0.12058 0.14952 0.31592 0.14952 0.20137 0 0.31953-0.14469 0.11817-0.1459 0.11817-0.40394 0-0.26889-0.11455-0.41841-0.11455-0.14952-0.3135-0.14952z"/>
<path d="m26.115 28.88q-0.37138 0-0.6053-0.24116-0.23392-0.24236-0.23392-0.63062 0-0.40997 0.23754-0.66318 0.23754-0.25322 0.62942-0.25322 0.37018 0 0.59807 0.24236 0.2291 0.24236 0.2291 0.63906 0 0.40756-0.23754 0.65715-0.23633 0.2496-0.61736 0.2496zm0.01688-1.453q-0.20498 0-0.32556 0.15434-0.12058 0.15314-0.12058 0.40635 0 0.25683 0.12058 0.40635 0.12058 0.14952 0.31592 0.14952 0.20137 0 0.31953-0.14469 0.11817-0.1459 0.11817-0.40394 0-0.26889-0.11455-0.41841-0.11455-0.14952-0.3135-0.14952z"/>
<path d="m27.646 28.254v0.59566h-0.38947v-1.7291h0.61013q0.65354 0 0.65354 0.55104 0 0.26045-0.1881 0.42202-0.1869 0.16037-0.5004 0.16037zm0-0.8344v0.53899h0.15314q0.31109 0 0.31109-0.27251 0-0.26648-0.31109-0.26648z"/>
</g>
</g>
<g display="none" opacity=".77">
<circle cx="20.32" cy="63.246" r="3" fill="#f00" opacity="1" style="paint-order:markers stroke fill"/>
<circle cx="33.02" cy="63.246" r="3" fill="#f00" opacity="1" style="paint-order:markers stroke fill"/>
<circle cx="30.48" cy="113.44" r="3" fill="#00f" opacity="1" style="paint-order:markers stroke fill"/>
<g fill="#f00">
<circle cx="7.62" cy="63.246" r="3" opacity="1" style="paint-order:markers stroke fill"/>
<circle cx="7.62" cy="48.187" r="3" opacity="1" style="paint-order:markers stroke fill"/>
<circle cx="20.32" cy="48.187" r="3" opacity="1" style="paint-order:markers stroke fill"/>
<circle cx="33.02" cy="48.187" r="3" opacity="1" style="paint-order:markers stroke fill"/>
</g>
<g fill="#0f0">
<circle cx="25.4" cy="83.324" r="3" opacity="1" style="paint-order:markers stroke fill"/>
<circle cx="35.56" cy="83.324" r="3" opacity="1" style="paint-order:markers stroke fill"/>
<circle cx="15.24" cy="83.324" r="3" opacity="1" style="paint-order:markers stroke fill"/>
<circle cx="5.08" cy="83.324" r="3" opacity="1" style="paint-order:markers stroke fill"/>
<circle cx="5.08" cy="98.383" r="3" opacity="1" style="paint-order:markers stroke fill"/>
<circle cx="15.24" cy="98.383" r="3" opacity="1" style="paint-order:markers stroke fill"/>
</g>
<circle cx="20.32" cy="20.078" r="3" fill="#ff0" opacity="1" style="paint-order:markers stroke fill"/>
<circle cx="25.4" cy="98.383" r="3" fill="#0f0" opacity="1" style="paint-order:markers stroke fill"/>
<circle cx="35.56" cy="98.383" r="3" fill="#0f0" opacity="1" style="paint-order:markers stroke fill"/>
<g fill="#f00">
<circle cx="5.08" cy="34.383" r="3" opacity="1" style="paint-order:markers stroke fill"/>
<circle cx="15.24" cy="34.383" r="3" opacity="1" style="paint-order:markers stroke fill"/>
<circle cx="35.56" cy="34.383" r="3" opacity="1" style="paint-order:markers stroke fill"/>
</g>
<circle cx="20.32" cy="113.44" r="3" fill="#00f" opacity="1" style="paint-order:markers stroke fill"/>
<circle cx="10.16" cy="113.44" r="3" fill="#0f0" opacity="1" style="paint-order:markers stroke fill"/>
<circle cx="25.4" cy="34.383" r="3" fill="#f00" opacity="1" style="paint-order:markers stroke fill"/>
</g>
</svg>
