<svg width="50.8mm" height="128.5mm" version="1.1" viewBox="0 0 50.8 128.5" xmlns="http://www.w3.org/2000/svg">
<g>
<g transform="translate(-3.688e-6 -.0060456)">
<rect x=".10316" y=".10469" width="50.594" height="128.3" fill="#313131" stroke="#313131" stroke-dashoffset="20.409" stroke-linecap="round" stroke-linejoin="round" stroke-width=".20631" style="paint-order:markers stroke fill"/>
<rect x="32.512" y="105.14" width="10.16" height="14.224" rx="1" ry="1" stroke-width="1.0051" style="paint-order:markers stroke fill"/>
<rect x="20.32" y="105.14" width="10.16" height="14.224" rx="1" ry="1" stroke-width="1.0051" style="paint-order:markers stroke fill"/>
</g>
<g transform="translate(-34.058 18.977)">
<path d="m38.937 54.438a6 6 0 0 1 0-8.4853 6 6 0 0 1 8.4853 0 6 6 0 0 1 0 8.4853" fill="none" stroke="#c8c8c8" stroke-dashoffset="2.6457" stroke-linejoin="round" stroke-width=".3" style="paint-order:markers stroke fill"/>
<g transform="rotate(-.99002 43.065 49.218)" fill="#c8c8c8" aria-label="IIIII">
<path d="m38.706 54.194 0.1515 0.16303-0.72378 0.6726-0.1515-0.16303z"/>
<path d="m37.746 47.644-0.09075 0.20321-0.90217-0.40291 0.09075-0.20321z"/>
<path d="m43.399 44.198-0.22252-0.0039 0.01753-0.9879 0.22252 0.0039z"/>
<path d="m48.785 48.048-0.08339-0.20634 0.91607-0.37022 0.08339 0.20634z"/>
<path d="m47.35 54.511 0.15714-0.1576 0.69969 0.69762-0.15714 0.1576z"/>
</g>
</g>
<g transform="translate(-35.306 .42863)">
<path d="m40.207 54.438a6 6 0 0 1 0-8.4853 6 6 0 0 1 8.4853 0 6 6 0 0 1 0 8.4853" fill="none" stroke="#c8c8c8" stroke-dashoffset="2.6457" stroke-linejoin="round" stroke-width=".3" style="paint-order:markers stroke fill"/>
<g transform="rotate(-.99002 43.065 49.218)" fill="#c8c8c8" aria-label="IIIII">
<path d="m39.976 54.216 0.1515 0.16303-0.72378 0.6726-0.1515-0.16303z"/>
<path d="m48.62 54.533 0.15714-0.1576 0.69969 0.69762-0.15714 0.1576z"/>
</g>
</g>
<g transform="translate(-2.794 18.929)">
<path d="m40.207 54.438a6 6 0 0 1 0-8.4853 6 6 0 0 1 8.4853 0 6 6 0 0 1 0 8.4853" fill="none" stroke="#c8c8c8" stroke-dashoffset="2.6457" stroke-linejoin="round" stroke-width=".3" style="paint-order:markers stroke fill"/>
<g transform="rotate(-.99002 43.065 49.218)" fill="#c8c8c8" aria-label="IIIII">
<path d="m39.976 54.216 0.1515 0.16303-0.72378 0.6726-0.1515-0.16303z"/>
<path d="m48.62 54.533 0.15714-0.1576 0.69969 0.69762-0.15714 0.1576z"/>
</g>
</g>
<g transform="translate(-19.054 18.969)">
<path d="m40.207 54.438a6 6 0 0 1 0-8.4853 6 6 0 0 1 8.4853 0 6 6 0 0 1 0 8.4853" fill="none" stroke="#c8c8c8" stroke-dashoffset="2.6457" stroke-linejoin="round" stroke-width=".3" style="paint-order:markers stroke fill"/>
<g transform="rotate(-.99002 43.065 49.218)" fill="#c8c8c8" aria-label="IIIII">
<path d="m39.976 54.216 0.1515 0.16303-0.72378 0.6726-0.1515-0.16303z"/>
<path d="m48.62 54.533 0.15714-0.1576 0.69969 0.69762-0.15714 0.1576z"/>
</g>
</g>
<g transform="translate(-19.05 .42863)">
<path d="m40.207 54.438a6 6 0 0 1 0-8.4853 6 6 0 0 1 8.4853 0 6 6 0 0 1 0 8.4853" fill="none" stroke="#c8c8c8" stroke-dashoffset="2.6457" stroke-linejoin="round" stroke-width=".3" style="paint-order:markers stroke fill"/>
<g transform="rotate(-.99002 43.065 49.218)" fill="#c8c8c8" aria-label="IIIII">
<path d="m39.976 54.216 0.1515 0.16303-0.72378 0.6726-0.1515-0.16303z"/>
<path d="m48.62 54.533 0.15714-0.1576 0.69969 0.69762-0.15714 0.1576z"/>
</g>
</g>
<g transform="translate(-2.794 .42863)">
<path d="m40.207 54.438a6 6 0 0 1 0-8.4853 6 6 0 0 1 8.4853 0 6 6 0 0 1 0 8.4853" fill="none" stroke="#c8c8c8" stroke-dashoffset="2.6457" stroke-linejoin="round" stroke-width=".3" style="paint-order:markers stroke fill"/>
<g transform="rotate(-.99002 43.065 49.218)" fill="#c8c8c8" aria-label="IIIII">
<path d="m39.976 54.216 0.1515 0.16303-0.72378 0.6726-0.1515-0.16303z"/>
<path d="m48.62 54.533 0.15714-0.1576 0.69969 0.69762-0.15714 0.1576z"/>
</g>
</g>
<g transform="translate(-2.794 .42863)">
<path d="m40.207 54.438a6 6 0 0 1 0-8.4853 6 6 0 0 1 8.4853 0 6 6 0 0 1 0 8.4853" fill="none" stroke="#c8c8c8" stroke-dashoffset="2.6457" stroke-linejoin="round" stroke-width=".3" style="paint-order:markers stroke fill"/>
<g transform="rotate(-.99002 43.065 49.218)" fill="#c8c8c8" aria-label="IIIII">
<path d="m39.976 54.216 0.1515 0.16303-0.72378 0.6726-0.1515-0.16303z"/>
<path d="m48.62 54.533 0.15714-0.1576 0.69969 0.69762-0.15714 0.1576z"/>
</g>
</g>
</g>
<g fill="#dcdcdc">
<g stroke-width="0">
<g aria-label="OUT">
<path d="m22.857 107.47q0-0.2701 0.08079-0.45338 0.06029-0.13505 0.16399-0.24236 0.1049-0.10732 0.2291-0.15916 0.16519-0.0699 0.38103-0.0699 0.39067 0 0.6246 0.24236 0.23513 0.24236 0.23513 0.67404 0 0.42805-0.23272 0.67041-0.23272 0.24116-0.62218 0.24116-0.39429 0-0.62701-0.23995-0.23272-0.24116-0.23272-0.66318zm0.36776-0.0121q0 0.30024 0.13866 0.45578 0.13866 0.15434 0.35209 0.15434t0.34968-0.15313q0.13746-0.15434 0.13746-0.46182 0-0.30385-0.13384-0.45337-0.13264-0.14952-0.35329-0.14952t-0.35571 0.15193q-0.13505 0.15072-0.13505 0.45579z"/>
<path d="m24.847 106.57h0.35691v0.9574q0 0.22789 0.01326 0.29541 0.02291 0.10852 0.10852 0.17484 0.08682 0.0651 0.23633 0.0651 0.15193 0 0.2291-0.0615 0.07717-0.0627 0.09285-0.15313 0.01567-0.0904 0.01567-0.30025v-0.97789h0.35691v0.92846q0 0.31832-0.02894 0.44976-0.02894 0.13143-0.10732 0.22186-0.07717 0.0904-0.2074 0.14469-0.13022 0.0531-0.34003 0.0531-0.25321 0-0.38464-0.0579-0.13022-0.0591-0.20619-0.15193-0.07597-0.094-0.10008-0.19654-0.03497-0.15193-0.03497-0.44855z"/>
<path d="m27.031 108.34v-1.4686h-0.52452v-0.29904h1.4047v0.29904h-0.52331v1.4686z"/>
</g>
<g aria-label="EOC">
<path d="m35.047 108.32v-1.7677h1.3107v0.29904h-0.95378v0.39188h0.88746v0.29782h-0.88746v0.48111h0.98754v0.29783z"/>
<path d="m36.624 107.45q0-0.27009 0.08079-0.45337 0.06029-0.13505 0.16399-0.24236 0.1049-0.10732 0.2291-0.15917 0.16519-0.0699 0.38103-0.0699 0.39067 0 0.6246 0.24236 0.23513 0.24236 0.23513 0.67403 0 0.42806-0.23272 0.67042-0.23272 0.24116-0.62218 0.24116-0.39429 0-0.62701-0.23996-0.23272-0.24115-0.23272-0.66318zm0.36776-0.0121q0 0.30024 0.13866 0.45578 0.13866 0.15434 0.35209 0.15434t0.34968-0.15313q0.13746-0.15434 0.13746-0.46182 0-0.30386-0.13384-0.45337-0.13264-0.14952-0.35329-0.14952t-0.35571 0.15193q-0.13505 0.15072-0.13505 0.45579z"/>
<path d="m39.747 107.67 0.34606 0.10973q-0.07958 0.28939-0.26527 0.43046-0.18448 0.13988-0.46905 0.13988-0.35209 0-0.57878-0.23996-0.22669-0.24115-0.22669-0.65835 0-0.44132 0.22789-0.68489 0.22789-0.24477 0.59927-0.24477 0.32436 0 0.52693 0.19172 0.12058 0.11334 0.18087 0.32556l-0.3533 0.0844q-0.03135-0.13746-0.13143-0.21704-0.09887-0.0796-0.24116-0.0796-0.19654 0-0.31953 0.14108-0.12178 0.14107-0.12178 0.45699 0 0.33521 0.12058 0.47749 0.12058 0.14228 0.3135 0.14228 0.14228 0 0.24477-0.0904 0.10249-0.0904 0.1471-0.28457z"/>
</g>
<g aria-label="PLAY">
<path d="m3.9871 79.297v-1.7677h0.57275q0.32556 0 0.42444 0.02653 0.15193 0.03979 0.25442 0.17363 0.10249 0.13264 0.10249 0.34365 0 0.16278-0.059083 0.27371t-0.15072 0.17484q-0.090434 0.0627-0.18448 0.0832-0.12781 0.02532-0.37018 0.02532h-0.23272v0.6668zm0.35691-1.4686v0.50161h0.19534q0.21101 0 0.28215-0.02773 0.071141-0.02773 0.11093-0.08682 0.040997-0.05908 0.040997-0.13746 0-0.09646-0.056672-0.15916-0.056672-0.0627-0.14349-0.07838-0.063906-0.01206-0.25683-0.01206z"/>
<path d="m5.6463 79.297v-1.7532h0.35691v1.4554h0.88746v0.29783z"/>
<path d="m8.7403 79.297h-0.38826l-0.15434-0.40153h-0.70659l-0.1459 0.40153h-0.37862l0.6885-1.7677h0.37741zm-0.65715-0.69936-0.24357-0.65595-0.23875 0.65595z"/>
<path d="m9.1684 79.297v-0.74397l-0.64751-1.0237h0.41841l0.416 0.69935 0.40755-0.69935h0.41117l-0.64992 1.0261v0.74156z"/>
</g>
<g aria-label="SAMPLE">
<path d="m14.208 78.694 0.34727-0.03376q0.03135 0.17484 0.12661 0.25683 0.09646 0.08199 0.25924 0.08199 0.17243 0 0.25924-0.07235 0.08802-0.07355 0.08802-0.17122 0-0.0627-0.03738-0.10611-0.03617-0.04461-0.12781-0.07717-0.0627-0.0217-0.28577-0.07717-0.28698-0.07114-0.40273-0.17484-0.16278-0.1459-0.16278-0.35571 0-0.13505 0.07596-0.25201 0.07717-0.11817 0.22066-0.17966 0.14469-0.06149 0.34847-0.06149 0.3328 0 0.5004 0.1459 0.16881 0.1459 0.17725 0.38947l-0.35691 0.01568q-0.02291-0.13625-0.09887-0.19534-0.07476-0.06029-0.22548-0.06029-0.15555 0-0.24357 0.06391-0.05667 0.041-0.05667 0.10973 0 0.0627 0.05305 0.10731 0.06752 0.05667 0.32797 0.11817 0.26045 0.06149 0.38464 0.12781 0.1254 0.06511 0.19534 0.17966 0.07114 0.11334 0.07114 0.28095 0 0.15193-0.08441 0.28456-0.0844 0.13264-0.23874 0.19775-0.15434 0.06391-0.38464 0.06391-0.33521 0-0.51487-0.15434-0.17966-0.15555-0.21463-0.45217z"/>
<path d="m17.542 79.269h-0.38826l-0.15434-0.40153h-0.70659l-0.1459 0.40153h-0.37862l0.6885-1.7677h0.37741zm-0.65715-0.69935-0.24357-0.65595-0.23874 0.65595z"/>
<path d="m17.727 79.269v-1.7677h0.53416l0.32074 1.2058 0.31712-1.2058h0.53537v1.7677h-0.33159v-1.3915l-0.35088 1.3915h-0.34365l-0.34968-1.3915v1.3915z"/>
<path d="m19.792 79.269v-1.7677h0.57275q0.32556 0 0.42444 0.02653 0.15193 0.03979 0.25442 0.17363 0.10249 0.13264 0.10249 0.34365 0 0.16278-0.05908 0.27371t-0.15072 0.17484q-0.09043 0.0627-0.18448 0.0832-0.12781 0.02532-0.37018 0.02532h-0.23272v0.6668zm0.35691-1.4686v0.50161h0.19534q0.21101 0 0.28215-0.02773 0.07114-0.02773 0.11093-0.08682 0.041-0.05908 0.041-0.13746 0-0.09646-0.05667-0.15916-0.05667-0.0627-0.14349-0.07838-0.06391-0.01206-0.25683-0.01206z"/>
<path d="m21.451 79.269v-1.7532h0.35691v1.4554h0.88746v0.29783z"/>
<path d="m22.951 79.269v-1.7677h1.3107v0.29904h-0.95378v0.39188h0.88746v0.29783h-0.88746v0.48111h0.98754v0.29783z"/>
</g>
<g aria-label="START">
<path d="m27.499 78.702 0.34727-0.03376q0.03135 0.17484 0.12661 0.25683 0.09646 0.08199 0.25924 0.08199 0.17243 0 0.25924-0.07235 0.08802-0.07355 0.08802-0.17122 0-0.0627-0.03738-0.10611-0.03617-0.04461-0.12781-0.07717-0.0627-0.0217-0.28577-0.07717-0.28698-0.07114-0.40273-0.17484-0.16278-0.1459-0.16278-0.35571 0-0.13505 0.07596-0.25201 0.07717-0.11817 0.22066-0.17966 0.14469-0.0615 0.34847-0.0615 0.3328 0 0.5004 0.1459 0.16881 0.1459 0.17725 0.38947l-0.35691 0.01568q-0.02291-0.13625-0.09887-0.19534-0.07476-0.06029-0.22548-0.06029-0.15555 0-0.24357 0.06391-0.05667 0.041-0.05667 0.10973 0 0.0627 0.05305 0.10732 0.06752 0.05667 0.32797 0.11817 0.26045 0.06149 0.38464 0.12781 0.1254 0.06511 0.19534 0.17966 0.07114 0.11334 0.07114 0.28095 0 0.15193-0.0844 0.28456-0.08441 0.13264-0.23875 0.19775-0.15434 0.06391-0.38464 0.06391-0.33521 0-0.51487-0.15434-0.17966-0.15555-0.21463-0.45217z"/>
<path d="m29.637 79.277v-1.4686h-0.52452v-0.29904h1.4047v0.29904h-0.52331v1.4686z"/>
<path d="m32.16 79.277h-0.38826l-0.15434-0.40153h-0.70659l-0.1459 0.40153h-0.37862l0.6885-1.7677h0.37741zm-0.65715-0.69936-0.24357-0.65595-0.23874 0.65595z"/>
<path d="m32.351 79.277v-1.7677h0.7512q0.28336 0 0.41117 0.04823 0.12902 0.04703 0.20619 0.16881 0.07717 0.12178 0.07717 0.27854 0 0.19896-0.11696 0.32918-0.11696 0.12902-0.34968 0.16278 0.11576 0.06752 0.19051 0.14831 0.07597 0.08079 0.20378 0.28698l0.21584 0.34485h-0.42685l-0.25804-0.38464q-0.13746-0.20619-0.1881-0.25924-0.05064-0.05426-0.10732-0.07355-0.05667-0.0205-0.17966-0.0205h-0.07235v0.73794zm0.35691-1.0201h0.26407q0.25683 0 0.32074-0.0217 0.06391-0.0217 0.10008-0.07476 0.03617-0.05305 0.03617-0.13264 0-0.08923-0.04823-0.14349-0.04702-0.05547-0.13384-0.06994-0.04341-6e-3 -0.26045-6e-3h-0.27854z"/>
<path d="m34.533 79.277v-1.4686h-0.52452v-0.29904h1.4047v0.29904h-0.52331v1.4686z"/>
</g>
<g aria-label="END">
<path d="m41.194 79.249v-1.7677h1.3107v0.29903h-0.95378v0.39188h0.88746v0.29783h-0.88746v0.48111h0.98754v0.29783z"/>
<path d="m42.847 79.249v-1.7677h0.34727l0.72347 1.1805v-1.1805h0.33159v1.7677h-0.35812l-0.71262-1.1527v1.1527z"/>
<path d="m44.626 77.482h0.65233q0.22066 0 0.33641 0.03376 0.15555 0.04582 0.26648 0.16278 0.11093 0.11696 0.16881 0.28698 0.05788 0.16881 0.05788 0.4172 0 0.21825-0.05426 0.3762-0.06632 0.19293-0.18931 0.3123-0.09284 0.09043-0.2508 0.14108-0.11817 0.03738-0.31592 0.03738h-0.67162zm0.35691 0.29903v1.1708h0.26648q0.14952 0 0.21584-0.01688 0.08682-0.0217 0.14349-0.07355 0.05788-0.05185 0.09405-0.17002 0.03617-0.11937 0.03617-0.32436t-0.03617-0.31471q-0.03617-0.10973-0.10129-0.17122-0.06511-0.06149-0.16519-0.0832-0.07476-0.01688-0.293-0.01688z"/>
</g>
<g aria-label="IN">
<path d="m12.142 108.35v-1.7677h0.35691v1.7677z"/>
<path d="m12.841 108.35v-1.7677h0.34727l0.72347 1.1805v-1.1805h0.33159v1.7677h-0.35812l-0.71262-1.1527v1.1527z"/>
</g>
<g aria-label="TUNE">
<path d="m16.55 93.785v-1.4686h-0.52452v-0.29903h1.4047v0.29903h-0.52331v1.4686z"/>
<path d="m17.659 92.018h0.35691v0.95739q0 0.22789 0.01326 0.29542 0.02291 0.10852 0.10852 0.17484 0.08682 0.06511 0.23633 0.06511 0.15193 0 0.2291-0.06149 0.07717-0.0627 0.09285-0.15314 0.01567-0.09043 0.01567-0.30024v-0.97789h0.35692v0.92845q0 0.31833-0.02894 0.44976-0.02894 0.13143-0.10732 0.22186-0.07717 0.09043-0.20739 0.14469-0.13022 0.05306-0.34003 0.05306-0.25322 0-0.38464-0.05788-0.13022-0.05908-0.20619-0.15193-0.07597-0.09405-0.10008-0.19654-0.03497-0.15193-0.03497-0.44855z"/>
<path d="m19.45 93.785v-1.7677h0.34727l0.72347 1.1805v-1.1805h0.33159v1.7677h-0.35812l-0.71262-1.1527v1.1527z"/>
<path d="m21.231 93.785v-1.7677h1.3107v0.29903h-0.95377v0.39188h0.88746v0.29783h-0.88746v0.48111h0.98754v0.29783z"/>
</g>
<g aria-label="ATTACK">
<path d="m28.492 93.808h-0.38826l-0.15434-0.40152h-0.70659l-0.1459 0.40152h-0.37862l0.6885-1.7677h0.37741zm-0.65715-0.69935-0.24357-0.65595-0.23875 0.65595z"/>
<path d="m28.897 93.808v-1.4686h-0.52452v-0.29903h1.4047v0.29903h-0.52331v1.4686z"/>
<path d="m30.407 93.808v-1.4686h-0.52452v-0.29903h1.4047v0.29903h-0.52331v1.4686z"/>
<path d="m32.93 93.808h-0.38826l-0.15434-0.40152h-0.70659l-0.1459 0.40152h-0.37862l0.6885-1.7677h0.37741zm-0.65715-0.69935-0.24357-0.65595-0.23875 0.65595z"/>
<path d="m34.251 93.158 0.34606 0.10973q-0.07958 0.28939-0.26527 0.43046-0.18448 0.13987-0.46905 0.13987-0.35209 0-0.57878-0.23995-0.22669-0.24116-0.22669-0.65836 0-0.44132 0.22789-0.68488 0.22789-0.24477 0.59928-0.24477 0.32436 0 0.52693 0.19172 0.12058 0.11334 0.18087 0.32556l-0.35329 0.08441q-0.03135-0.13746-0.13143-0.21704-0.09887-0.07958-0.24116-0.07958-0.19654 0-0.31953 0.14108-0.12178 0.14108-0.12178 0.45699 0 0.33521 0.12058 0.47749 0.12058 0.14228 0.3135 0.14228 0.14228 0 0.24477-0.09043 0.10249-0.09043 0.14711-0.28456z"/>
<path d="m34.909 93.808v-1.7677h0.35691v0.78496l0.72106-0.78496h0.4799l-0.66559 0.6885 0.70177 1.0792h-0.46182l-0.48593-0.82958-0.28939 0.29542v0.53416z"/>
</g>
<g aria-label="DECAY">
<path d="m39.433 92.003h0.65233q0.22066 0 0.33641 0.03376 0.15555 0.04582 0.26648 0.16278 0.11093 0.11696 0.16881 0.28698 0.05788 0.16881 0.05788 0.4172 0 0.21825-0.05426 0.3762-0.06632 0.19293-0.18931 0.3123-0.09285 0.09043-0.2508 0.14108-0.11817 0.03738-0.31592 0.03738h-0.67162zm0.35691 0.29903v1.1708h0.26648q0.14952 0 0.21584-0.01688 0.08682-0.0217 0.14349-0.07355 0.05788-0.05185 0.09405-0.17002 0.03617-0.11937 0.03617-0.32436t-0.03617-0.31471q-0.03617-0.10973-0.10129-0.17122-0.06511-0.06149-0.16519-0.0832-0.07476-0.01688-0.29301-0.01688z"/>
<path d="m41.219 93.771v-1.7677h1.3107v0.29903h-0.95378v0.39188h0.88746v0.29783h-0.88746v0.48111h0.98754v0.29783z"/>
<path d="m43.999 93.121 0.34606 0.10973q-0.07958 0.28939-0.26527 0.43046-0.18448 0.13987-0.46905 0.13987-0.35209 0-0.57878-0.23995-0.22669-0.24116-0.22669-0.65836 0-0.44132 0.22789-0.68488 0.22789-0.24477 0.59928-0.24477 0.32436 0 0.52693 0.19172 0.12058 0.11334 0.18087 0.32556l-0.3533 0.08441q-0.03135-0.13746-0.13143-0.21704-0.09887-0.07958-0.24116-0.07958-0.19654 0-0.31953 0.14108-0.12178 0.14108-0.12178 0.45699 0 0.33521 0.12058 0.47749 0.12058 0.14228 0.3135 0.14228 0.14228 0 0.24477-0.09043 0.10249-0.09043 0.14711-0.28456z"/>
<path d="m46.247 93.771h-0.38826l-0.15434-0.40153h-0.70659l-0.1459 0.40153h-0.37862l0.6885-1.7677h0.37741zm-0.65715-0.69935-0.24357-0.65595-0.23874 0.65595z"/>
<path d="m46.675 93.771v-0.74397l-0.64751-1.0237h0.41841l0.416 0.69935 0.40756-0.69935h0.41117l-0.64992 1.0261v0.74156z"/>
</g>
<g aria-label="REC">
<path d="m4.6323 93.823v-1.7677h0.7512q0.28336 0 0.41117 0.04823 0.12902 0.04703 0.20619 0.16881 0.07717 0.12178 0.07717 0.27854 0 0.19896-0.11696 0.32918-0.11696 0.12902-0.34968 0.16278 0.11576 0.06752 0.19051 0.14831 0.075964 0.08079 0.20378 0.28698l0.21584 0.34485h-0.42685l-0.25804-0.38464q-0.13746-0.20619-0.1881-0.25924-0.050643-0.05426-0.10731-0.07355-0.056672-0.0205-0.17966-0.0205h-0.072347v0.73794zm0.35691-1.0201h0.26407q0.25683 0 0.32074-0.0217 0.063907-0.0217 0.10008-0.07476 0.036174-0.05305 0.036174-0.13264 0-0.08923-0.048231-0.14349-0.047026-0.05547-0.13384-0.06994-0.043408-6e-3 -0.26045-6e-3h-0.27854z"/>
<path d="m6.4157 93.823v-1.7677h1.3107v0.29904h-0.95377v0.39188h0.88746v0.29783h-0.88746v0.48111h0.98754v0.29783z"/>
<path d="m9.1962 93.173 0.34606 0.10973q-0.079582 0.28939-0.26527 0.43046-0.18448 0.13987-0.46905 0.13987-0.35209 0-0.57878-0.23995-0.22669-0.24116-0.22669-0.65836 0-0.44132 0.22789-0.68488 0.22789-0.24477 0.59927-0.24477 0.32436 0 0.52693 0.19172 0.12058 0.11334 0.18087 0.32556l-0.35329 0.0844q-0.03135-0.13746-0.13143-0.21704-0.098874-0.07958-0.24116-0.07958-0.19654 0-0.31953 0.14108-0.12178 0.14108-0.12178 0.45699 0 0.33521 0.12058 0.47749 0.12058 0.14228 0.3135 0.14228 0.14228 0 0.24477-0.09043t0.14711-0.28456z"/>
</g>
<g aria-label="SAMPLE">
<path d="m4.1261 41.668 0.34727-0.03376q0.03135 0.17484 0.12661 0.25683 0.096463 0.08199 0.25924 0.08199 0.17243 0 0.25924-0.07235 0.088022-0.07355 0.088022-0.17122 0-0.0627-0.037379-0.10611-0.036174-0.04461-0.12781-0.07717-0.062701-0.0217-0.28577-0.07717-0.28698-0.07114-0.40273-0.17484-0.16278-0.1459-0.16278-0.35571 0-0.13505 0.075964-0.25201 0.07717-0.11817 0.22066-0.17966 0.14469-0.0615 0.34847-0.0615 0.3328 0 0.5004 0.1459 0.16881 0.1459 0.17725 0.38947l-0.35691 0.01568q-0.02291-0.13625-0.098874-0.19534-0.074759-0.06029-0.22548-0.06029-0.15555 0-0.24357 0.06391-0.056672 0.041-0.056672 0.10973 0 0.0627 0.053054 0.10732 0.067524 0.05667 0.32797 0.11817 0.26045 0.0615 0.38464 0.12781 0.1254 0.06511 0.19534 0.17966 0.071141 0.11334 0.071141 0.28095 0 0.15193-0.084405 0.28456t-0.23875 0.19775q-0.15434 0.06391-0.38464 0.06391-0.33521 0-0.51487-0.15434-0.17966-0.15555-0.21463-0.45217z"/>
<path d="m7.4601 42.243h-0.38826l-0.15434-0.40153h-0.70659l-0.1459 0.40153h-0.37862l0.6885-1.7677h0.37741zm-0.65715-0.69936-0.24357-0.65595-0.23875 0.65595z"/>
<path d="m7.6458 42.243v-1.7677h0.53416l0.32074 1.2058 0.31712-1.2058h0.53537v1.7677h-0.33159v-1.3915l-0.35088 1.3915h-0.34365l-0.34968-1.3915v1.3915z"/>
<path d="m9.7101 42.243v-1.7677h0.57275q0.32556 0 0.42444 0.02653 0.15193 0.03979 0.25442 0.17363 0.10249 0.13264 0.10249 0.34365 0 0.16278-0.05908 0.27371t-0.15072 0.17484q-0.09043 0.0627-0.18448 0.0832-0.12781 0.02532-0.37018 0.02532h-0.23272v0.6668zm0.35691-1.4686v0.50161h0.19534q0.21101 0 0.28215-0.02773 0.07114-0.02773 0.11093-0.08682 0.041-0.05908 0.041-0.13746 0-0.09646-0.05667-0.15916-0.05667-0.0627-0.14349-0.07838-0.06391-0.01206-0.25683-0.01206z"/>
<path d="m11.369 42.243v-1.7532h0.35691v1.4554h0.88746v0.29783z"/>
<path d="m12.869 42.243v-1.7677h1.3107v0.29903h-0.95378v0.39188h0.88746v0.29783h-0.88746v0.48111h0.98754v0.29783z"/>
</g>
<g aria-label="START">
<path d="m21.411 41.64 0.34727-0.03376q0.03135 0.17484 0.12661 0.25683 0.09646 0.08199 0.25924 0.08199 0.17243 0 0.25924-0.07235 0.08802-0.07355 0.08802-0.17122 0-0.0627-0.03738-0.10611-0.03617-0.04461-0.12781-0.07717-0.0627-0.0217-0.28577-0.07717-0.28698-0.07114-0.40273-0.17484-0.16278-0.1459-0.16278-0.35571 0-0.13505 0.07596-0.25201 0.07717-0.11817 0.22066-0.17966 0.14469-0.0615 0.34847-0.0615 0.3328 0 0.5004 0.1459 0.16881 0.1459 0.17725 0.38947l-0.35691 0.01568q-0.02291-0.13625-0.09887-0.19534-0.07476-0.06029-0.22548-0.06029-0.15555 0-0.24357 0.06391-0.05667 0.041-0.05667 0.10973 0 0.0627 0.05305 0.10732 0.06752 0.05667 0.32797 0.11817 0.26045 0.0615 0.38464 0.12781 0.1254 0.06511 0.19534 0.17966 0.07114 0.11334 0.07114 0.28095 0 0.15193-0.08441 0.28456-0.08441 0.13264-0.23874 0.19775-0.15434 0.06391-0.38464 0.06391-0.33521 0-0.51487-0.15434-0.17966-0.15555-0.21463-0.45217z"/>
<path d="m23.549 42.215v-1.4686h-0.52452v-0.29903h1.4047v0.29903h-0.52331v1.4686z"/>
<path d="m26.071 42.215h-0.38826l-0.15434-0.40153h-0.70659l-0.1459 0.40153h-0.37862l0.6885-1.7677h0.37741zm-0.65715-0.69935-0.24357-0.65595-0.23874 0.65595z"/>
<path d="m26.263 42.215v-1.7677h0.7512q0.28336 0 0.41117 0.04823 0.12902 0.04703 0.20619 0.16881 0.07717 0.12178 0.07717 0.27854 0 0.19895-0.11696 0.32918-0.11696 0.12902-0.34968 0.16278 0.11576 0.06752 0.19051 0.14831 0.07596 0.08079 0.20378 0.28698l0.21584 0.34485h-0.42685l-0.25804-0.38464q-0.13746-0.20619-0.1881-0.25924-0.05064-0.05426-0.10731-0.07355-0.05667-0.0205-0.17966-0.0205h-0.07235v0.73794zm0.35691-1.0201h0.26407q0.25683 0 0.32074-0.0217 0.06391-0.0217 0.10008-0.07476t0.03617-0.13264q0-0.08923-0.04823-0.14349-0.04703-0.05547-0.13384-0.06994-0.04341-6e-3 -0.26045-6e-3h-0.27854z"/>
<path d="m28.444 42.215v-1.4686h-0.52452v-0.29903h1.4047v0.29903h-0.52331v1.4686z"/>
</g>
<g aria-label="END">
<path d="m39.17 42.206v-1.7677h1.3107v0.29904h-0.95378v0.39188h0.88746v0.29783h-0.88746v0.48111h0.98754v0.29783z"/>
<path d="m40.823 42.206v-1.7677h0.34726l0.72347 1.1805v-1.1805h0.33159v1.7677h-0.35812l-0.71262-1.1527v1.1527z"/>
<path d="m42.603 40.438h0.65233q0.22066 0 0.33641 0.03376 0.15555 0.04582 0.26648 0.16278 0.11093 0.11696 0.16881 0.28698 0.05788 0.16881 0.05788 0.4172 0 0.21825-0.05426 0.3762-0.06632 0.19292-0.18931 0.3123-0.09285 0.09043-0.2508 0.14108-0.11817 0.03738-0.31592 0.03738h-0.67162zm0.35691 0.29904v1.1708h0.26648q0.14952 0 0.21584-0.01688 0.08682-0.0217 0.14349-0.07355 0.05788-0.05185 0.09405-0.17002 0.03617-0.11937 0.03617-0.32436t-0.03617-0.31471q-0.03617-0.10973-0.10129-0.17122-0.06511-0.0615-0.16519-0.0832-0.07476-0.01688-0.293-0.01688z"/>
</g>
<g aria-label="TUNE">
<path d="m6.3898 60.77v-1.4686h-0.52452v-0.29903h1.4047v0.29903h-0.52331v1.4686z"/>
<path d="m7.4991 59.003h0.35691v0.95739q0 0.22789 0.013264 0.29542 0.02291 0.10852 0.10852 0.17484 0.086816 0.06511 0.23633 0.06511 0.15193 0 0.2291-0.0615 0.07717-0.0627 0.092845-0.15314 0.015675-0.09043 0.015675-0.30024v-0.97789h0.35691v0.92845q0 0.31833-0.028939 0.44976-0.028939 0.13143-0.10731 0.22186-0.07717 0.09043-0.20739 0.14469-0.13022 0.05306-0.34003 0.05306-0.25321 0-0.38464-0.05788-0.13022-0.05908-0.20619-0.15193-0.075964-0.09405-0.10008-0.19654-0.034968-0.15193-0.034968-0.44855z"/>
<path d="m9.2897 60.77v-1.7677h0.34727l0.72347 1.1805v-1.1805h0.33159v1.7677h-0.35812l-0.71262-1.1527v1.1527z"/>
<path d="m11.071 60.77v-1.7677h1.3107v0.29903h-0.95378v0.39188h0.88746v0.29783h-0.88746v0.48111h0.98754v0.29783z"/>
</g>
<g aria-label="ATTACK">
<path d="m22.266 60.747h-0.38826l-0.15434-0.40153h-0.70659l-0.1459 0.40153h-0.37862l0.6885-1.7677h0.37741zm-0.65715-0.69936-0.24357-0.65595-0.23874 0.65595z"/>
<path d="m22.671 60.747v-1.4686h-0.52452v-0.29903h1.4047v0.29903h-0.52331v1.4686z"/>
<path d="m24.181 60.747v-1.4686h-0.52452v-0.29903h1.4047v0.29903h-0.52331v1.4686z"/>
<path d="m26.703 60.747h-0.38826l-0.15434-0.40153h-0.70659l-0.1459 0.40153h-0.37862l0.6885-1.7677h0.37741zm-0.65715-0.69936-0.24357-0.65595-0.23874 0.65595z"/>
<path d="m28.025 60.097 0.34606 0.10973q-0.07958 0.28939-0.26527 0.43046-0.18448 0.13987-0.46905 0.13987-0.35209 0-0.57878-0.23995-0.22669-0.24116-0.22669-0.65836 0-0.44132 0.22789-0.68488 0.22789-0.24477 0.59928-0.24477 0.32436 0 0.52693 0.19172 0.12058 0.11334 0.18087 0.32556l-0.3533 0.08441q-0.03135-0.13746-0.13143-0.21704-0.09887-0.07958-0.24116-0.07958-0.19654 0-0.31953 0.14108-0.12178 0.14108-0.12178 0.45699 0 0.33521 0.12058 0.47749 0.12058 0.14228 0.3135 0.14228 0.14228 0 0.24477-0.09043 0.10249-0.09043 0.14711-0.28456z"/>
<path d="m28.683 60.747v-1.7677h0.35691v0.78496l0.72106-0.78496h0.4799l-0.66559 0.6885 0.70177 1.0792h-0.46182l-0.48593-0.82958-0.28939 0.29542v0.53416z"/>
</g>
<g aria-label="DECAY">
<path d="m37.515 58.96h0.65233q0.22066 0 0.33641 0.03376 0.15555 0.04582 0.26648 0.16278 0.11093 0.11696 0.16881 0.28698 0.05788 0.16881 0.05788 0.4172 0 0.21825-0.05426 0.3762-0.06632 0.19292-0.18931 0.3123-0.09285 0.09043-0.2508 0.14108-0.11817 0.03738-0.31592 0.03738h-0.67162zm0.35691 0.29904v1.1708h0.26648q0.14952 0 0.21584-0.01688 0.08682-0.0217 0.14349-0.07355 0.05788-0.05185 0.09405-0.17002 0.03617-0.11937 0.03617-0.32436 0-0.20498-0.03617-0.31471t-0.10129-0.17122q-0.06511-0.0615-0.16519-0.0832-0.07476-0.01688-0.293-0.01688z"/>
<path d="m39.301 60.728v-1.7677h1.3107v0.29904h-0.95378v0.39188h0.88746v0.29783h-0.88746v0.48111h0.98754v0.29783z"/>
<path d="m42.082 60.078 0.34606 0.10973q-0.07958 0.28939-0.26527 0.43046-0.18448 0.13987-0.46905 0.13987-0.35209 0-0.57878-0.23995-0.22669-0.24116-0.22669-0.65836 0-0.44132 0.22789-0.68488 0.22789-0.24477 0.59928-0.24477 0.32436 0 0.52693 0.19172 0.12058 0.11334 0.18087 0.32556l-0.3533 0.0844q-0.03135-0.13746-0.13143-0.21704-0.09887-0.07958-0.24116-0.07958-0.19654 0-0.31953 0.14108-0.12178 0.14108-0.12178 0.45699 0 0.33521 0.12058 0.47749 0.12058 0.14228 0.3135 0.14228 0.14228 0 0.24477-0.09043 0.10249-0.09043 0.14711-0.28456z"/>
<path d="m44.329 60.728h-0.38826l-0.15434-0.40153h-0.70659l-0.1459 0.40153h-0.37862l0.6885-1.7677h0.37741zm-0.65715-0.69935-0.24357-0.65595-0.23874 0.65595z"/>
<path d="m44.757 60.728v-0.74397l-0.6475-1.0237h0.41841l0.416 0.69936 0.40756-0.69936h0.41117l-0.64992 1.0261v0.74156z"/>
</g>
<g aria-label="PLAY">
<path d="m16.209 30.162v-1.7677h0.57275q0.32556 0 0.42444 0.02653 0.15193 0.03979 0.25442 0.17363 0.10249 0.13264 0.10249 0.34365 0 0.16278-0.05908 0.27371t-0.15072 0.17484q-0.09043 0.0627-0.18448 0.0832-0.12781 0.02532-0.37018 0.02532h-0.23272v0.6668zm0.35691-1.4686v0.50161h0.19534q0.21101 0 0.28215-0.02773 0.07114-0.02773 0.11093-0.08682 0.041-0.05908 0.041-0.13746 0-0.09646-0.05667-0.15916-0.05667-0.0627-0.14349-0.07838-0.06391-0.01206-0.25683-0.01206z"/>
<path d="m17.869 30.162v-1.7532h0.35691v1.4554h0.88746v0.29783z"/>
<path d="m20.963 30.162h-0.38826l-0.15434-0.40153h-0.70659l-0.1459 0.40153h-0.37862l0.6885-1.7677h0.37741zm-0.65715-0.69935-0.24357-0.65595-0.23875 0.65595z"/>
<path d="m21.391 30.162v-0.74397l-0.64751-1.0237h0.41841l0.416 0.69936 0.40756-0.69936h0.41117l-0.64992 1.0261v0.74156z"/>
</g>
<g aria-label="LOAD">
<path d="m3.7535 30.187v-1.7532h0.35691v1.4554h0.88746v0.29783z"/>
<path d="m5.1812 29.314q0-0.2701 0.080788-0.45338 0.060289-0.13505 0.16399-0.24236 0.1049-0.10732 0.2291-0.15916 0.16519-0.06994 0.38103-0.06994 0.39067 0 0.6246 0.24236 0.23513 0.24236 0.23513 0.67403 0 0.42805-0.23272 0.67042-0.23272 0.24116-0.62218 0.24116-0.39429 0-0.62701-0.23995-0.23272-0.24116-0.23272-0.66318zm0.36776-0.01206q0 0.30024 0.13867 0.45579 0.13867 0.15434 0.35209 0.15434t0.34968-0.15313q0.13746-0.15434 0.13746-0.46182 0-0.30386-0.13384-0.45338-0.13264-0.14952-0.35329-0.14952t-0.35571 0.15193q-0.13505 0.15072-0.13505 0.45579z"/>
<path d="m8.7672 30.187h-0.38826l-0.15434-0.40153h-0.70659l-0.1459 0.40153h-0.37862l0.6885-1.7677h0.37741zm-0.65715-0.69935-0.24357-0.65595-0.23875 0.65595z"/>
<path d="m8.9565 28.419h0.65233q0.22066 0 0.33641 0.03376 0.15555 0.04582 0.26648 0.16278t0.16881 0.28698q0.05788 0.16881 0.05788 0.4172 0 0.21825-0.05426 0.3762-0.06632 0.19292-0.18931 0.3123-0.09285 0.09043-0.2508 0.14108-0.11817 0.03738-0.31592 0.03738h-0.67162zm0.35691 0.29904v1.1708h0.26648q0.14952 0 0.21584-0.01688 0.086817-0.0217 0.14349-0.07355 0.057878-0.05185 0.094051-0.17002 0.03617-0.11937 0.03617-0.32436 0-0.20498-0.03617-0.31471-0.036174-0.10973-0.10129-0.17122-0.065112-0.0615-0.16519-0.0832-0.074759-0.01688-0.29301-0.01688z"/>
</g>
<g aria-label="LOOP">
<path d="m28.132 30.185v-1.7532h0.35691v1.4554h0.88746v0.29783z"/>
<path d="m29.56 29.312q0-0.2701 0.08079-0.45338 0.06029-0.13505 0.16399-0.24236 0.1049-0.10732 0.2291-0.15916 0.16519-0.06994 0.38103-0.06994 0.39067 0 0.6246 0.24236 0.23513 0.24236 0.23513 0.67403 0 0.42805-0.23272 0.67042-0.23272 0.24116-0.62218 0.24116-0.39429 0-0.62701-0.23995-0.23272-0.24116-0.23272-0.66318zm0.36776-0.01206q0 0.30024 0.13866 0.45579 0.13866 0.15434 0.35209 0.15434t0.34968-0.15314q0.13746-0.15434 0.13746-0.46182 0-0.30386-0.13384-0.45338-0.13264-0.14952-0.35329-0.14952t-0.35571 0.15193q-0.13505 0.15072-0.13505 0.45579z"/>
<path d="m31.479 29.312q0-0.2701 0.08079-0.45338 0.06029-0.13505 0.16399-0.24236 0.1049-0.10732 0.2291-0.15916 0.16519-0.06994 0.38103-0.06994 0.39067 0 0.6246 0.24236 0.23513 0.24236 0.23513 0.67403 0 0.42805-0.23272 0.67042-0.23272 0.24116-0.62218 0.24116-0.39429 0-0.62701-0.23995-0.23272-0.24116-0.23272-0.66318zm0.36776-0.01206q0 0.30024 0.13867 0.45579 0.13866 0.15434 0.35209 0.15434 0.21342 0 0.34968-0.15314 0.13746-0.15434 0.13746-0.46182 0-0.30386-0.13384-0.45338-0.13264-0.14952-0.3533-0.14952-0.22066 0-0.35571 0.15193-0.13505 0.15072-0.13505 0.45579z"/>
<path d="m33.471 30.185v-1.7677h0.57275q0.32556 0 0.42444 0.02653 0.15193 0.03979 0.25442 0.17363 0.10249 0.13264 0.10249 0.34365 0 0.16278-0.05908 0.27371t-0.15072 0.17484q-0.09043 0.0627-0.18448 0.0832-0.12781 0.02532-0.37018 0.02532h-0.23272v0.6668zm0.35691-1.4686v0.50161h0.19534q0.21101 0 0.28215-0.02773 0.07114-0.02773 0.11093-0.08682 0.041-0.05908 0.041-0.13746 0-0.09646-0.05667-0.15916-0.05667-0.0627-0.14349-0.07838-0.06391-0.01206-0.25683-0.01206z"/>
</g>
<g aria-label="REC">
<path d="m41.231 30.184v-1.7677h0.7512q0.28336 0 0.41117 0.04823 0.12902 0.04703 0.20619 0.16881 0.07717 0.12178 0.07717 0.27854 0 0.19896-0.11696 0.32918-0.11696 0.12902-0.34968 0.16278 0.11576 0.06752 0.19051 0.14831 0.07596 0.08079 0.20378 0.28698l0.21584 0.34485h-0.42685l-0.25804-0.38464q-0.13746-0.20619-0.1881-0.25924-0.05064-0.05426-0.10732-0.07355-0.05667-0.0205-0.17966-0.0205h-0.07235v0.73794zm0.35691-1.0201h0.26407q0.25683 0 0.32074-0.0217 0.06391-0.0217 0.10008-0.07476 0.03617-0.05305 0.03617-0.13264 0-0.08923-0.04823-0.14349-0.04703-0.05547-0.13384-0.06994-0.04341-6e-3 -0.26045-6e-3h-0.27854z"/>
<path d="m43.014 30.184v-1.7677h1.3107v0.29904h-0.95378v0.39188h0.88746v0.29783h-0.88746v0.48111h0.98754v0.29783z"/>
<path d="m45.795 29.534 0.34606 0.10973q-0.07958 0.28939-0.26527 0.43046-0.18448 0.13987-0.46905 0.13987-0.35209 0-0.57878-0.23995-0.22669-0.24116-0.22669-0.65836 0-0.44132 0.22789-0.68488 0.22789-0.24477 0.59928-0.24477 0.32436 0 0.52693 0.19172 0.12058 0.11334 0.18087 0.32556l-0.3533 0.08441q-0.03135-0.13746-0.13143-0.21704-0.09887-0.07958-0.24116-0.07958-0.19654 0-0.31953 0.14108-0.12178 0.14108-0.12178 0.45699 0 0.33521 0.12058 0.47749 0.12058 0.14228 0.3135 0.14228 0.14228 0 0.24477-0.09043 0.10249-0.09043 0.14711-0.28456z"/>
</g>
</g>
<g transform="translate(0 -1.4799)" stroke="#dcdcdc" stroke-width=".2" aria-label="sAMpleR">
<path d="m15.981 7.0969q-0.29986-0.059972-0.49036-0.13053-0.18697-0.074083-0.29633-0.19756-0.10583-0.127-0.10583-0.32456 0-0.20461 0.10583-0.35983 0.10936-0.15522 0.30339-0.23989 0.19756-0.084667 0.45508-0.084667 0.24694 0 0.45156 0.10583 0.20814 0.10231 0.32808 0.28928t0.11994 0.42686h-0.13053q0-0.20814-0.10231-0.36689-0.1023-0.15875-0.27869-0.24342-0.17639-0.088195-0.39158-0.088195-0.1905 0-0.3563 0.059972-0.16581 0.059972-0.27164 0.18344-0.10231 0.12347-0.10231 0.31044 0 0.16933 0.09878 0.27164 0.09878 0.098778 0.25753 0.15169 0.15875 0.052917 0.4445 0.11289 0.28928 0.059972 0.44803 0.11642 0.16228 0.052917 0.27164 0.17992 0.11289 0.127 0.11289 0.35631 0 0.22931-0.12347 0.38806-0.11994 0.15522-0.32103 0.23283-0.20108 0.077611-0.43744 0.077611-0.29281 0-0.51506-0.10936-0.22225-0.10936-0.3422-0.30692-0.11642-0.20108-0.11642-0.45861h0.13053q0 0.22578 0.09878 0.39511 0.10231 0.16933 0.2928 0.26458 0.1905 0.091722 0.45156 0.091722 0.32456 0 0.53622-0.15522 0.2152-0.15522 0.2152-0.42333 0-0.18344-0.09172-0.28222-0.09172-0.098778-0.23283-0.14111-0.13758-0.045861-0.41628-0.10231z"/>
<path d="m20.225 8.2716h-2.3142l1.1571-2.5082zm-2.1096-0.13053h1.905l-0.9525-2.0673z"/>
<path d="m21.217 5.8127h0.14111l0.85725 1.5169 0.85372-1.5169h0.13053v2.4553h-1.9826zm0.13053 2.3283h1.7216v-2.0637l-0.79375 1.397h-0.12347l-0.80433-1.4182z"/>
<path d="m24.665 8.2716h-0.13053v-2.4553h0.98778q0.24694 0 0.45508 0.10583 0.21167 0.10583 0.33514 0.29986t0.12347 0.44803q0 0.24342-0.127 0.44803-0.12347 0.20461-0.33867 0.31397-0.18697 0.09525-0.44803 0.09525h-0.85725zm0-0.87489h0.85725q0.22578 0 0.37042-0.070556 0.18697-0.088194 0.29986-0.26458 0.11289-0.17639 0.11289-0.39158 0-0.21167-0.11289-0.38806t-0.30339-0.26458q-0.14464-0.070556-0.36689-0.070556h-0.85725z"/>
<path d="m27.731 8.2716v-2.4553h0.13053v2.3248h1.711v0.13053z"/>
<path d="m30.784 5.8163h1.7286v0.13053h-1.5981v0.99483h1.3899v0.13053h-1.3899v1.0689h1.5981v0.13053h-1.7286z"/>
<path d="m35.787 8.2716h-1.8874v-2.4553h0.95603q0.30692 0 0.50094 0.10936 0.1905 0.10583 0.29633 0.28928 0.10583 0.18344 0.10583 0.40569 0 0.27517-0.16933 0.49389-0.16933 0.21519-0.42686 0.28575zm-1.6651-2.3248 0.95956 1.3406q0.23636-0.049389 0.39158-0.23636 0.15522-0.18697 0.15522-0.43039 0-0.19403-0.09525-0.35278t-0.26811-0.24342q-0.15522-0.077611-0.4057-0.077611zm-0.09172 0.084667v1.2665h0.90664zm0 2.1096h1.5099l-0.51506-0.71614-0.10936 0.00353h-0.88547z"/>
</g>
<g transform="translate(.082903 1.5201)" stroke="#dcdcdc" stroke-width=".2" aria-label="loMAs">
<path d="m19.336 123.63v-2.4553h0.13053v2.3248h1.711v0.13053z"/>
<path d="m22.706 121.13q0.27517 0 0.508 0.13758 0.23283 0.13406 0.36689 0.36689 0.13758 0.23284 0.13758 0.508v0.53622q0 0.27517-0.13758 0.508-0.13406 0.23284-0.36689 0.37042-0.23283 0.13406-0.508 0.13406-0.27517 0-0.508-0.13406-0.23283-0.13758-0.37042-0.37042-0.13406-0.23283-0.13406-0.508v-0.53622q0-0.27516 0.13406-0.508 0.13758-0.23283 0.37042-0.36689 0.23283-0.13758 0.508-0.13758zm-0.88194 1.5487q0 0.23989 0.11642 0.4445 0.11994 0.20109 0.32103 0.32103 0.20461 0.11642 0.4445 0.11642t0.44097-0.11642q0.20461-0.11994 0.32103-0.32103 0.11994-0.20461 0.11994-0.4445v-0.53622q0-0.23989-0.11994-0.44097-0.11642-0.20461-0.32103-0.32103-0.20108-0.11994-0.44097-0.11994t-0.4445 0.11994q-0.20108 0.11642-0.32103 0.32103-0.11642 0.20108-0.11642 0.44097z"/>
<path d="m24.326 121.17h0.14111l0.85725 1.5169 0.85372-1.5169h0.13053v2.4553h-1.9826zm0.13053 2.3283h1.7216v-2.0638l-0.79375 1.397h-0.12347l-0.80433-1.4182z"/>
<path d="m29.086 123.63h-2.3142l1.1571-2.5082zm-2.1096-0.13053h1.905l-0.9525-2.0673z"/>
<path d="m30.593 122.46q-0.29986-0.06-0.49036-0.13053-0.18697-0.0741-0.29633-0.19755-0.10583-0.127-0.10583-0.32456 0-0.20461 0.10583-0.35983 0.10936-0.15522 0.30339-0.23989 0.19756-0.0847 0.45508-0.0847 0.24694 0 0.45156 0.10584 0.20814 0.1023 0.32808 0.28927 0.11994 0.18698 0.11994 0.42686h-0.13053q0-0.20813-0.10231-0.36688t-0.27869-0.24342q-0.17639-0.0882-0.39158-0.0882-0.1905 0-0.3563 0.06-0.16581 0.06-0.27164 0.18344-0.10231 0.12347-0.10231 0.31045 0 0.16933 0.09878 0.27163 0.09878 0.0988 0.25753 0.1517 0.15875 0.0529 0.4445 0.11289 0.28928 0.06 0.44803 0.11641 0.16228 0.0529 0.27164 0.17992 0.11289 0.127 0.11289 0.35631 0 0.2293-0.12347 0.38805-0.11994 0.15522-0.32103 0.23284-0.20108 0.0776-0.43744 0.0776-0.29281 0-0.51506-0.10936-0.22225-0.10937-0.34219-0.30692-0.11642-0.20108-0.11642-0.45861h0.13053q0 0.22578 0.09878 0.39511 0.1023 0.16933 0.2928 0.26458 0.1905 0.0917 0.45156 0.0917 0.32456 0 0.53622-0.15522 0.2152-0.15522 0.2152-0.42333 0-0.18345-0.09172-0.28222-0.09172-0.0988-0.23283-0.14111-0.13758-0.0459-0.41628-0.10231z"/>
</g>
</g>
<g display="none" opacity=".77">
<circle cx="20.32" cy="63.246" r="3" fill="#f00" opacity="1" style="paint-order:markers stroke fill"/>
<circle cx="33.02" cy="63.246" r="3" fill="#f00" opacity="1" style="paint-order:markers stroke fill"/>
<circle cx="30.48" cy="113.44" r="3" fill="#00f" opacity="1" style="paint-order:markers stroke fill"/>
<g fill="#f00">
<circle cx="7.62" cy="63.246" r="3" opacity="1" style="paint-order:markers stroke fill"/>
<circle cx="7.62" cy="48.187" r="3" opacity="1" style="paint-order:markers stroke fill"/>
<circle cx="20.32" cy="48.187" r="3" opacity="1" style="paint-order:markers stroke fill"/>
<circle cx="33.02" cy="48.187" r="3" opacity="1" style="paint-order:markers stroke fill"/>
</g>
<g fill="#0f0">
<circle cx="25.4" cy="83.324" r="3" opacity="1" style="paint-order:markers stroke fill"/>
<circle cx="35.56" cy="83.324" r="3" opacity="1" style="paint-order:markers stroke fill"/>
<circle cx="15.24" cy="83.324" r="3" opacity="1" style="paint-order:markers stroke fill"/>
<circle cx="5.08" cy="83.324" r="3" opacity="1" style="paint-order:markers stroke fill"/>
<circle cx="5.08" cy="98.383" r="3" opacity="1" style="paint-order:markers stroke fill"/>
<circle cx="15.24" cy="98.383" r="3" opacity="1" style="paint-order:markers stroke fill"/>
</g>
<circle cx="20.32" cy="20.078" r="3" fill="#ff0" opacity="1" style="paint-order:markers stroke fill"/>
<circle cx="25.4" cy="98.383" r="3" fill="#0f0" opacity="1" style="paint-order:markers stroke fill"/>
<circle cx="35.56" cy="98.383" r="3" fill="#0f0" opacity="1" style="paint-order:markers stroke fill"/>
<g fill="#f00">
<circle cx="5.08" cy="34.383" r="3" opacity="1" style="paint-order:markers stroke fill"/>
<circle cx="15.24" cy="34.383" r="3" opacity="1" style="paint-order:markers stroke fill"/>
<circle cx="35.56" cy="34.383" r="3" opacity="1" style="paint-order:markers stroke fill"/>
</g>
<circle cx="20.32" cy="113.44" r="3" fill="#00f" opacity="1" style="paint-order:markers stroke fill"/>
<circle cx="10.16" cy="113.44" r="3" fill="#0f0" opacity="1" style="paint-order:markers stroke fill"/>
<circle cx="25.4" cy="34.383" r="3" fill="#f00" opacity="1" style="paint-order:markers stroke fill"/>
</g>
</svg>
