<svg width="50.8mm" height="128.5mm" version="1.1" viewBox="0 0 50.8 128.5" xmlns="http://www.w3.org/2000/svg" xmlns:xlink="http://www.w3.org/1999/xlink">
<g>
<rect width="50.8" height="128.5" fill="#313131" fill-opacity=".99216" style="paint-order:markers stroke fill"/>
</g>
<g fill="#e1e1e1" stroke="#e1e1e1">
<g stroke-width=".1">
<g aria-label="LOAD">
<path d="m4.883 11.131h-0.76895v-1.4821h0.17363v1.325h0.59531z"/>
<path d="m5.7078 11.155q-0.31523 0-0.5054-0.20774-0.18914-0.20774-0.18914-0.54054 0-0.3576 0.19327-0.57051 0.19327-0.21291 0.52607-0.21291 0.30696 0 0.49403 0.20671 0.1881 0.20671 0.1881 0.54054 0 0.36277-0.19224 0.57361-0.19224 0.21084-0.5147 0.21084zm0.012402-1.3746q-0.23358 0-0.3793 0.16847-0.14573 0.16846-0.14573 0.44235t0.14159 0.44132q0.14263 0.1664 0.37104 0.1664 0.24391 0 0.38447-0.15916 0.14056-0.15916 0.14056-0.44545 0-0.29352-0.13643-0.45372-0.13643-0.1602-0.3762-0.1602z"/>
<path d="m7.8534 11.131h-0.19224l-0.1571-0.41548h-0.62839l-0.14779 0.41548h-0.19327l0.56844-1.4821h0.17983zm-0.40618-0.57154-0.23254-0.63149q-0.011369-0.031006-0.022738-0.099219h-0.00413q-0.010335 0.063045-0.023771 0.099219l-0.23048 0.63149z"/>
<path d="m8.0704 11.131v-1.4821h0.40928q0.78341 0 0.78341 0.72244 0 0.34313-0.21807 0.5519-0.21704 0.20774-0.58188 0.20774zm0.17363-1.325v1.1679h0.22118q0.29146 0 0.45372-0.15606t0.16226-0.44235q0-0.56947-0.60565-0.56947z"/>
</g>
<g aria-label="PLAY">
<path d="m17.156 10.57v0.56017h-0.17363v-1.4821h0.40721q0.23771 0 0.36794 0.11576 0.13126 0.11576 0.13126 0.3266 0 0.21084-0.14573 0.3452-0.14469 0.13436-0.39171 0.13436zm0-0.76481v0.60771h0.1819q0.17983 0 0.27389-0.08165 0.09508-0.08268 0.09508-0.23254 0-0.29352-0.34726-0.29352z"/>
<path d="m18.938 11.131h-0.76895v-1.4821h0.17363v1.325h0.59531z"/>
<path d="m20.312 11.131h-0.19224l-0.1571-0.41548h-0.62838l-0.1478 0.41548h-0.19327l0.56844-1.4821h0.17983zm-0.40618-0.57154-0.23254-0.63149q-0.01137-0.031006-0.02274-0.099219h-0.0041q-0.01034 0.063045-0.02377 0.099219l-0.23048 0.63149z"/>
<path d="m21.493 9.6484-0.48886 0.93431v0.54777h-0.17363v-0.54364l-0.47646-0.93844h0.1974l0.33176 0.66973q0.0062 0.0124 0.03617 0.09095h0.0031q0.01033-0.03514 0.03927-0.09095l0.34726-0.66973z"/>
</g>
<g aria-label="LOOP">
<path d="m29.929 11.131h-0.76894v-1.4821h0.17363v1.325h0.59531z"/>
<path d="m30.754 11.155q-0.31523 0-0.5054-0.20774-0.18914-0.20774-0.18914-0.54054 0-0.3576 0.19327-0.57051 0.19327-0.21291 0.52607-0.21291 0.30696 0 0.49403 0.20671 0.1881 0.20671 0.1881 0.54054 0 0.36277-0.19224 0.57361t-0.5147 0.21084zm0.0124-1.3746q-0.23358 0-0.3793 0.16847-0.14573 0.16846-0.14573 0.44235t0.14159 0.44132q0.14263 0.1664 0.37104 0.1664 0.24391 0 0.38447-0.15916 0.14056-0.15916 0.14056-0.44545 0-0.29352-0.13643-0.45372-0.13642-0.1602-0.3762-0.1602z"/>
<path d="m32.35 11.155q-0.31523 0-0.5054-0.20774-0.18914-0.20774-0.18914-0.54054 0-0.3576 0.19327-0.57051 0.19327-0.21291 0.52607-0.21291 0.30696 0 0.49403 0.20671 0.1881 0.20671 0.1881 0.54054 0 0.36277-0.19224 0.57361t-0.5147 0.21084zm0.0124-1.3746q-0.23358 0-0.3793 0.16847-0.14573 0.16846-0.14573 0.44235t0.14159 0.44132q0.14263 0.1664 0.37104 0.1664 0.24391 0 0.38447-0.15916 0.14056-0.15916 0.14056-0.44545 0-0.29352-0.13642-0.45372-0.13643-0.1602-0.3762-0.1602z"/>
<path d="m33.522 10.57v0.56017h-0.17363v-1.4821h0.40721q0.23771 0 0.36794 0.11576 0.13126 0.11576 0.13126 0.3266 0 0.21084-0.14573 0.3452-0.14469 0.13436-0.39171 0.13436zm0-0.76481v0.60771h0.1819q0.17983 0 0.27388-0.08165 0.09508-0.08268 0.09508-0.23254 0-0.29352-0.34727-0.29352z"/>
</g>
<g aria-label="REC">
<path d="m43.594 11.131h-0.20671l-0.24805-0.41548q-0.03411-0.05788-0.06615-0.09819-0.03204-0.04134-0.06615-0.06718-0.03307-0.02584-0.07235-0.03721-0.03824-0.0124-0.08682-0.0124h-0.14263v0.63045h-0.17362v-1.4821h0.44235q0.09715 0 0.1788 0.024805 0.08268 0.023771 0.14263 0.073381 0.06098 0.049609 0.09508 0.12402 0.03411 0.073381 0.03411 0.1726 0 0.07752-0.02377 0.14263-0.02274 0.06408-0.06614 0.11472-0.04237 0.05064-0.10335 0.08682-0.05994 0.03514-0.13539 0.05478v0.0041q0.03721 0.01654 0.06408 0.03824 0.02791 0.02067 0.05271 0.04961 0.02481 0.02894 0.04858 0.06615 0.02481 0.03617 0.05478 0.08475zm-0.88883-1.325v0.53743h0.23564q0.06511 0 0.11989-0.01964 0.05581-0.01964 0.09612-0.05581 0.04031-0.03721 0.06305-0.08992 0.02274-0.05374 0.02274-0.11989 0-0.11886-0.07751-0.185-0.07648-0.067179-0.22221-0.067179z"/>
<path d="m44.582 11.131h-0.78548v-1.4821h0.75241v0.1571h-0.57878v0.49299h0.53537v0.15606h-0.53537v0.51883h0.61185z"/>
<path d="m45.876 11.068q-0.16433 0.08682-0.40928 0.08682-0.31626 0-0.50643-0.2036t-0.19017-0.53433q0-0.35553 0.21394-0.57464 0.21394-0.21911 0.5426-0.21911 0.21084 0 0.34933 0.060978v0.185q-0.15916-0.088883-0.3514-0.088883-0.25528 0-0.41444 0.17053-0.15813 0.17053-0.15813 0.45579 0 0.27078 0.14779 0.43202 0.14883 0.1602 0.38964 0.1602 0.22324 0 0.38654-0.09922z"/>
</g>
</g>
<g stroke-width=".2" aria-label="sAMpler">
<path d="m16.012 5.3756q-0.35983-0.071967-0.58843-0.15663-0.22437-0.0889-0.3556-0.23707-0.127-0.1524-0.127-0.38947 0-0.24553 0.127-0.4318 0.13123-0.18627 0.36407-0.28787 0.23707-0.1016 0.5461-0.1016 0.29633 0 0.54187 0.127 0.24977 0.12277 0.3937 0.34713 0.14393 0.22437 0.14393 0.51223h-0.15663q0-0.24977-0.12277-0.44027-0.12277-0.1905-0.33443-0.2921-0.21167-0.10583-0.4699-0.10583-0.2286 0-0.42757 0.071967t-0.32597 0.22013q-0.12277 0.14817-0.12277 0.37253 0 0.2032 0.11853 0.32597 0.11853 0.11853 0.30903 0.18203t0.5334 0.13547q0.34713 0.071967 0.53763 0.1397 0.19473 0.0635 0.32597 0.2159 0.13547 0.1524 0.13547 0.42757 0 0.27517-0.14817 0.46567-0.14393 0.18627-0.38523 0.2794-0.2413 0.093133-0.52493 0.093133-0.35137 0-0.61807-0.13123-0.2667-0.13123-0.41063-0.3683-0.1397-0.2413-0.1397-0.55033h0.15663q0 0.27093 0.11853 0.47413 0.12277 0.2032 0.35137 0.3175 0.2286 0.11007 0.54187 0.11007 0.38947 0 0.64347-0.18627 0.25823-0.18627 0.25823-0.508 0-0.22013-0.11007-0.33867-0.11007-0.11853-0.2794-0.16933-0.1651-0.055033-0.49953-0.12277z"/>
<path d="m20.47 6.7853h-2.7771l1.3885-3.0099zm-2.5315-0.15663h2.286l-1.143-2.4807z"/>
<path d="m21.026 3.8347h0.16933l1.0287 1.8203 1.0245-1.8203h0.15663v2.9464h-2.3791zm0.15663 2.794h2.0659v-2.4765l-0.9525 1.6764h-0.14817l-0.9652-1.7018z"/>
<path d="m24.528 6.7853h-0.15663v-2.9464h1.1853q0.29633 0 0.5461 0.127 0.254 0.127 0.40217 0.35983 0.14817 0.23283 0.14817 0.53763 0 0.2921-0.1524 0.53763-0.14817 0.24553-0.4064 0.37677-0.22437 0.1143-0.53763 0.1143h-1.0287zm0-1.0499h1.0287q0.27093 0 0.4445-0.084667 0.22437-0.10583 0.35983-0.3175 0.13547-0.21167 0.13547-0.4699 0-0.254-0.13547-0.46567-0.13547-0.21167-0.36407-0.3175-0.17357-0.084667-0.44027-0.084667h-1.0287z"/>
<path d="m27.573 6.7853v-2.9464h0.15663v2.7898h2.0532v0.15663z"/>
<path d="m30.601 3.8389h2.0743v0.15663h-1.9177v1.1938h1.6679v0.15663h-1.6679v1.2827h1.9177v0.15663h-2.0743z"/>
<path d="m35.389 3.9363q0.254 0.11853 0.39793 0.35137 0.14817 0.23283 0.14817 0.51647 0 0.3302-0.2032 0.59267-0.19897 0.25823-0.51223 0.3429l0.7493 1.0456h-0.18627l-0.7239-1.016-0.13547 0.00423h-1.0626v1.0118h-0.15663v-2.9464h1.1218q0.18627 0 0.3175 0.0254 0.13547 0.021167 0.24553 0.071967zm-0.42333 1.6806q0.22013 0 0.4064-0.11007 0.18627-0.11007 0.29633-0.29633 0.11007-0.18627 0.11007-0.4064 0-0.24553-0.13123-0.4445-0.127-0.19897-0.3556-0.29633-0.1651-0.067733-0.46567-0.067733h-0.9652v1.6214z"/>
</g>
<g stroke-width=".2" aria-label="loMAs">
<path d="m19.336 123.38v-2.4553h0.13053v2.3248h1.711v0.13053z"/>
<path d="m22.706 120.87q0.27517 0 0.508 0.13759 0.23283 0.13405 0.36689 0.36688 0.13758 0.23284 0.13758 0.508v0.53623q0 0.27516-0.13758 0.508-0.13406 0.23283-0.36689 0.37041-0.23283 0.13406-0.508 0.13406-0.27517 0-0.508-0.13406-0.23283-0.13758-0.37042-0.37041-0.13406-0.23284-0.13406-0.508v-0.53623q0-0.27516 0.13406-0.508 0.13758-0.23283 0.37042-0.36688 0.23283-0.13759 0.508-0.13759zm-0.88194 1.5487q0 0.23989 0.11642 0.4445 0.11994 0.20108 0.32103 0.32102 0.20461 0.11642 0.4445 0.11642t0.44097-0.11642q0.20461-0.11994 0.32103-0.32102 0.11994-0.20461 0.11994-0.4445v-0.53623q0-0.23988-0.11994-0.44097-0.11642-0.20461-0.32103-0.32103-0.20108-0.11994-0.44097-0.11994t-0.4445 0.11994q-0.20108 0.11642-0.32103 0.32103-0.11642 0.20109-0.11642 0.44097z"/>
<path d="m24.326 120.92h0.14111l0.85725 1.517 0.85372-1.517h0.13053v2.4553h-1.9826zm0.13053 2.3283h1.7216v-2.0638l-0.79375 1.397h-0.12347l-0.80433-1.4182z"/>
<path d="m29.086 123.38h-2.3142l1.1571-2.5082zm-2.1096-0.13053h1.905l-0.9525-2.0673z"/>
<path d="m30.593 122.2q-0.29986-0.06-0.49036-0.13053-0.18697-0.0741-0.29633-0.19755-0.10583-0.127-0.10583-0.32456 0-0.20461 0.10583-0.35983 0.10936-0.15522 0.30339-0.23989 0.19756-0.0847 0.45508-0.0847 0.24694 0 0.45156 0.10584 0.20814 0.1023 0.32808 0.28928 0.11994 0.18697 0.11994 0.42686h-0.13053q0-0.20814-0.10231-0.36689-0.1023-0.15875-0.27869-0.24342-0.17639-0.0882-0.39158-0.0882-0.1905 0-0.35631 0.06-0.1658 0.06-0.27164 0.18344-0.1023 0.12348-0.1023 0.31045 0 0.16933 0.09878 0.27164 0.09878 0.0988 0.25753 0.15169 0.15875 0.0529 0.4445 0.11289 0.28928 0.06 0.44803 0.11642 0.16228 0.0529 0.27164 0.17991 0.11289 0.127 0.11289 0.35631 0 0.2293-0.12347 0.38805-0.11994 0.15523-0.32103 0.23284-0.20108 0.0776-0.43744 0.0776-0.2928 0-0.51506-0.10936t-0.3422-0.30692q-0.11642-0.20108-0.11642-0.45861h0.13053q0 0.22578 0.09878 0.39511 0.10231 0.16933 0.29281 0.26458 0.1905 0.0917 0.45156 0.0917 0.32456 0 0.53622-0.15523 0.21519-0.15522 0.21519-0.42333 0-0.18344-0.09172-0.28222-0.09172-0.0988-0.23283-0.14111-0.13758-0.0459-0.41628-0.10231z"/>
</g>
<g stroke-width=".1">
<g aria-label="TUNE">
<path d="m7.5444 57.22h-0.57051v1.7666h-0.23151v-1.7666h-0.56913v-0.20946h1.3711z"/>
<path d="m9.2986 58.187q0 0.83234-0.75103 0.83234-0.71934 0-0.71934-0.80064v-1.2085h0.23151v1.1934q0 0.60772 0.51263 0.60772 0.49472 0 0.49472-0.58704v-1.2141h0.23151z"/>
<path d="m11.386 58.987h-0.28388l-1.017-1.5751q-0.03859-0.05926-0.06339-0.12402h-0.0083q0.01102 0.06339 0.01102 0.27147v1.4276h-0.23147v-1.9761h0.30041l0.98943 1.5503q0.06201 0.09646 0.07993 0.13229h0.0055q-0.01378-0.08544-0.01378-0.29077v-1.3918h0.23151z"/>
<path d="m12.952 58.987h-1.0473v-1.9761h1.0032v0.20946h-0.7717v0.65732h0.71382v0.20808h-0.71382v0.69178h0.8158z"/>
</g>
<g aria-label="ATTACK">
<path d="m22.186 59.003h-0.25632l-0.20946-0.55397h-0.83785l-0.19706 0.55397h-0.25769l0.75792-1.9761h0.23978zm-0.54157-0.76206-0.31006-0.84198q-0.01516-0.04134-0.03032-0.13229h-0.0055q-0.01378 0.08406-0.03169 0.13229l-0.30732 0.84198z"/>
<path d="m23.644 57.236h-0.57051v1.7666h-0.23151v-1.7666h-0.56913v-0.20946h1.3711z"/>
<path d="m25.122 57.236h-0.57051v1.7666h-0.23151v-1.7666h-0.56913v-0.20946h1.3711z"/>
<path d="m26.96 59.003h-0.25632l-0.20946-0.55397h-0.83785l-0.19706 0.55397h-0.25769l0.75792-1.9761h0.23978zm-0.54157-0.76206-0.31006-0.84198q-0.01516-0.04134-0.03032-0.13229h-0.0055q-0.01378 0.08406-0.03169 0.13229l-0.30732 0.84198z"/>
<path d="m28.594 58.92q-0.21911 0.11576-0.5457 0.11576-0.42168 0-0.67524-0.27147-0.25356-0.27147-0.25356-0.71245 0-0.47404 0.28525-0.76619t0.72347-0.29214q0.28112 0 0.46578 0.0813v0.24667q-0.21222-0.11851-0.46853-0.11851-0.34038 0-0.55259 0.22738-0.21084 0.22738-0.21084 0.60772 0 0.36105 0.19706 0.57602 0.19844 0.2136 0.51952 0.2136 0.29766 0 0.51539-0.13229z"/>
<path d="m30.372 59.003h-0.32246l-0.76343-0.90399q-0.04272-0.05099-0.05237-0.0689h-0.0055v0.9729h-0.23152v-1.9761h0.23151v0.9288h0.0055q0.01929-0.03032 0.05237-0.06752l0.73863-0.86127h0.28801l-0.84749 0.94809z"/>
</g>
<g aria-label="DECAY">
<path d="m37.259 59.003v-1.9761h0.5457q1.0446 0 1.0446 0.96325 0 0.45751-0.29077 0.73587-0.28939 0.27699-0.77584 0.27699zm0.23151-1.7666v1.5572h0.2949q0.38861 0 0.60496-0.20808t0.21635-0.5898q0-0.7593-0.80753-0.7593z"/>
<path d="m40.285 59.003h-1.0473v-1.9761h1.0032v0.20946h-0.7717v0.65732h0.71382v0.20808h-0.71382v0.69178h0.8158z"/>
<path d="m42.01 58.92q-0.21911 0.11576-0.5457 0.11576-0.42168 0-0.67524-0.27147-0.25356-0.27147-0.25356-0.71245 0-0.47404 0.28525-0.76619t0.72347-0.29214q0.28112 0 0.46578 0.0813v0.24667q-0.21222-0.11851-0.46853-0.11851-0.34038 0-0.55259 0.22738-0.21084 0.22738-0.21084 0.60772 0 0.36105 0.19706 0.57602 0.19844 0.2136 0.51952 0.2136 0.29766 0 0.51539-0.13229z"/>
<path d="m43.942 59.003h-0.25632l-0.20946-0.55397h-0.83785l-0.19706 0.55397h-0.25769l0.75792-1.9761h0.23978zm-0.54157-0.76206-0.31006-0.84198q-0.01516-0.04134-0.03032-0.13229h-0.0055q-0.01378 0.08406-0.03169 0.13229l-0.30732 0.84198z"/>
<path d="m45.516 57.027-0.65181 1.2457v0.73036h-0.23151v-0.72485l-0.63528-1.2513h0.2632l0.44235 0.89297q0.0083 0.01654 0.04823 0.12127h0.0041q0.01378-0.04685 0.05237-0.12127l0.46302-0.89297z"/>
</g>
<g aria-label="TUNE">
<path d="m5.7419 90.265h-0.57051v1.7666h-0.23151v-1.7666h-0.56913v-0.20946h1.3711z"/>
<path d="m7.4961 91.232q0 0.83234-0.75103 0.83234-0.71934 0-0.71934-0.80064v-1.2085h0.23151v1.1934q0 0.60772 0.51263 0.60772 0.49472 0 0.49472-0.58704v-1.2141h0.23151z"/>
<path d="m9.5838 92.031h-0.28388l-1.017-1.5751q-0.038585-0.05926-0.06339-0.12402h-0.00827q0.011024 0.06339 0.011024 0.27147v1.4276h-0.23151v-1.9761h0.30041l0.98943 1.5503q0.062012 0.09646 0.079926 0.13229h0.00551q-0.01378-0.08544-0.01378-0.29077v-1.3918h0.23151z"/>
<path d="m11.149 92.031h-1.0473v-1.9761h1.0032v0.20946h-0.7717v0.65732h0.71382v0.20808h-0.71382v0.69178h0.8158z"/>
</g>
<g aria-label="ATTACK">
<path d="m16.306 92.038h-0.25632l-0.20946-0.55397h-0.83785l-0.19706 0.55397h-0.25769l0.75792-1.9761h0.23978zm-0.54157-0.76206-0.31006-0.84198q-0.01516-0.04134-0.03032-0.13229h-0.0055q-0.01378 0.08406-0.0317 0.13229l-0.3073 0.84198z"/>
<path d="m17.764 90.271h-0.57051v1.7666h-0.23151v-1.7666h-0.56913v-0.20946h1.3711z"/>
<path d="m19.242 90.271h-0.57051v1.7666h-0.23151v-1.7666h-0.56913v-0.20946h1.3711z"/>
<path d="m21.08 92.038h-0.25632l-0.20946-0.55397h-0.83785l-0.19706 0.55397h-0.25769l0.75792-1.9761h0.23978zm-0.54157-0.76206-0.31006-0.84198q-0.01516-0.04134-0.03032-0.13229h-0.0055q-0.01378 0.08406-0.03169 0.13229l-0.3073 0.84198z"/>
<path d="m22.714 91.955q-0.21911 0.11576-0.5457 0.11576-0.42168 0-0.67524-0.27147-0.25356-0.27147-0.25356-0.71245 0-0.47404 0.28525-0.76619 0.28525-0.29214 0.72347-0.29214 0.28112 0 0.46578 0.0813v0.24667q-0.21222-0.11851-0.46853-0.11851-0.34038 0-0.55259 0.22738-0.21084 0.22738-0.21084 0.60772 0 0.36105 0.19706 0.57602 0.19844 0.2136 0.51952 0.2136 0.29766 0 0.51539-0.13229z"/>
<path d="m24.492 92.038h-0.32246l-0.76343-0.90399q-0.04272-0.05099-0.05237-0.0689h-0.0055v0.9729h-0.23151v-1.9761h0.23151v0.9288h0.0055q0.01929-0.03032 0.05237-0.06752l0.73863-0.86128h0.28801l-0.84749 0.94809z"/>
</g>
<g aria-label="DECAY">
<path d="m27.151 92.038v-1.9761h0.5457q1.0446 0 1.0446 0.96325 0 0.45751-0.29077 0.73587-0.28939 0.27699-0.77584 0.27699zm0.23151-1.7666v1.5572h0.2949q0.38861 0 0.60496-0.20808t0.21635-0.5898q0-0.7593-0.80753-0.7593z"/>
<path d="m30.178 92.038h-1.0473v-1.9761h1.0032v0.20946h-0.7717v0.65732h0.71382v0.20808h-0.71382v0.69178h0.8158z"/>
<path d="m31.903 91.955q-0.21911 0.11576-0.5457 0.11576-0.42168 0-0.67524-0.27147-0.25356-0.27147-0.25356-0.71245 0-0.47404 0.28525-0.76619t0.72347-0.29214q0.28112 0 0.46578 0.0813v0.24667q-0.21222-0.11851-0.46853-0.11851-0.34038 0-0.55259 0.22738-0.21084 0.22738-0.21084 0.60772 0 0.36105 0.19706 0.57602 0.19844 0.2136 0.51952 0.2136 0.29766 0 0.51539-0.13229z"/>
<path d="m33.835 92.038h-0.25632l-0.20946-0.55397h-0.83785l-0.19706 0.55397h-0.25769l0.75792-1.9761h0.23978zm-0.54157-0.76206-0.31006-0.84198q-0.015158-0.041341-0.030317-0.13229h-0.0055q-0.01378 0.08406-0.03169 0.13229l-0.3073 0.84198z"/>
<path d="m35.409 90.062-0.65181 1.2457v0.73036h-0.23151v-0.72485l-0.63528-1.2513h0.2632l0.44235 0.89297q0.0083 0.01654 0.04823 0.12127h0.0041q0.01378-0.04685 0.05237-0.12127l0.46302-0.89297z"/>
</g>
<g aria-label="SAMPLE">
<path d="m4.6105 40.216v-0.27285q0.046853 0.04134 0.11162 0.07441 0.066146 0.03307 0.1378 0.0565 0.073036 0.02205 0.14607 0.03445t0.13505 0.0124q0.2136 0 0.31833-0.07855 0.10611-0.07993 0.10611-0.22875 0-0.07993-0.035829-0.13918-0.034451-0.05926-0.096463-0.10749-0.062012-0.04961-0.14745-0.09371-0.08406-0.04548-0.1819-0.09508-0.10335-0.05237-0.19293-0.10611-0.089573-0.05374-0.15572-0.11851-0.066146-0.06477-0.10473-0.14607-0.037207-0.08268-0.037207-0.19292 0-0.13505 0.059256-0.23427 0.059256-0.1006 0.15572-0.16536 0.096463-0.06477 0.21911-0.09646 0.12402-0.03169 0.25218-0.03169 0.29214 0 0.42581 0.07028v0.26045q-0.17501-0.12127-0.44924-0.12127-0.075792 0-0.15158 0.01654-0.075792 0.01516-0.13505 0.05099-0.059256 0.03583-0.096463 0.09233t-0.037207 0.1378q0 0.07579 0.027561 0.13091 0.028939 0.05512 0.08406 0.1006 0.055122 0.04547 0.13367 0.08819 0.079926 0.04272 0.18328 0.09371 0.10611 0.05237 0.20119 0.11024 0.095085 0.05788 0.16674 0.12816 0.071658 0.07028 0.113 0.15572 0.042719 0.08544 0.042719 0.19568 0 0.14607-0.057878 0.24805-0.0565 0.1006-0.15434 0.16399-0.096463 0.06339-0.22324 0.09095-0.12678 0.02894-0.26734 0.02894-0.046853 0-0.11576-0.0083-0.068902-0.0069-0.14056-0.02205-0.071658-0.01378-0.13643-0.03445-0.06339-0.02205-0.10197-0.04823z"/>
<path d="m7.7318 40.296h-0.25632l-0.20946-0.55397h-0.83785l-0.19706 0.55397h-0.25769l0.75792-1.9761h0.23978zm-0.54157-0.76206-0.31006-0.84198q-0.015158-0.04134-0.030317-0.13229h-0.00551q-0.01378 0.08406-0.031695 0.13229l-0.3073 0.84198z"/>
<path d="m10.036 40.296h-0.23013v-1.3257q0-0.1571 0.019293-0.38447h-0.00551q-0.033073 0.13367-0.059256 0.19155l-0.67524 1.5186h-0.113l-0.67386-1.5076q-0.028939-0.06615-0.059256-0.20257h-0.00551q0.011024 0.11851 0.011024 0.38723v1.3229h-0.22324v-1.9761h0.30592l0.60634 1.378q0.07028 0.15847 0.09095 0.23702h0.00827q0.059256-0.16261 0.095085-0.24254l0.61874-1.3725h0.28939z"/>
<path d="m10.788 39.549v0.7469h-0.23151v-1.9761h0.54295q0.31695 0 0.49058 0.15434 0.17501 0.15434 0.17501 0.43546 0 0.28112-0.1943 0.46026-0.19293 0.17914-0.52228 0.17914zm0-1.0197v0.81029h0.24254q0.23978 0 0.36518-0.10886 0.12678-0.11024 0.12678-0.31006 0-0.39136-0.46302-0.39136z"/>
<path d="m13.164 40.296h-1.0253v-1.9761h0.23151v1.7666h0.79375z"/>
<path d="m14.514 40.296h-1.0473v-1.9761h1.0032v0.20946h-0.7717v0.65732h0.71382v0.20808h-0.71382v0.69178h0.8158z"/>
</g>
<g aria-label="START">
<path d="m21.528 40.216v-0.27285q0.04685 0.04134 0.11162 0.07441 0.06615 0.03307 0.1378 0.0565 0.07304 0.02205 0.14607 0.03445 0.07304 0.0124 0.13505 0.0124 0.2136 0 0.31833-0.07855 0.10611-0.07993 0.10611-0.22875 0-0.07993-0.03583-0.13918-0.03445-0.05926-0.09646-0.10749-0.06201-0.04961-0.14745-0.09371-0.08406-0.04548-0.1819-0.09508-0.10335-0.05237-0.19292-0.10611-0.08957-0.05374-0.15572-0.11851-0.06615-0.06477-0.10473-0.14607-0.03721-0.08268-0.03721-0.19292 0-0.13505 0.05926-0.23427 0.05926-0.1006 0.15572-0.16536 0.09646-0.06477 0.21911-0.09646 0.12402-0.03169 0.25218-0.03169 0.29214 0 0.42581 0.07028v0.26045q-0.17501-0.12127-0.44924-0.12127-0.07579 0-0.15158 0.01654-0.07579 0.01516-0.13505 0.05099-0.05926 0.03583-0.09646 0.09233-0.03721 0.0565-0.03721 0.1378 0 0.07579 0.02756 0.13091 0.02894 0.05512 0.08406 0.1006 0.05512 0.04547 0.13367 0.08819 0.07993 0.04272 0.18328 0.09371 0.10611 0.05237 0.20119 0.11024 0.09509 0.05788 0.16674 0.12816 0.07166 0.07028 0.113 0.15572 0.04272 0.08544 0.04272 0.19568 0 0.14607-0.05788 0.24805-0.0565 0.1006-0.15434 0.16399-0.09646 0.06339-0.22324 0.09095-0.12678 0.02894-0.26734 0.02894-0.04685 0-0.11576-0.0083-0.0689-0.0069-0.14056-0.02205-0.07166-0.01378-0.13643-0.03445-0.06339-0.02205-0.10197-0.04823z"/>
<path d="m24.289 38.529h-0.57051v1.7666h-0.23151v-1.7666h-0.56913v-0.20946h1.3711z"/>
<path d="m26.127 40.296h-0.25632l-0.20946-0.55397h-0.83785l-0.19706 0.55397h-0.25769l0.75792-1.9761h0.23978zm-0.54157-0.76206-0.31006-0.84198q-0.01516-0.04134-0.03032-0.13229h-0.0055q-0.01378 0.08406-0.03169 0.13229l-0.30732 0.84198z"/>
<path d="m27.833 40.296h-0.27561l-0.33073-0.55397q-0.04548-0.07717-0.08819-0.13091-0.04272-0.05512-0.08819-0.08957-0.0441-0.03445-0.09646-0.04961-0.05099-0.01654-0.11576-0.01654h-0.19017v0.8406h-0.23151v-1.9761h0.5898q0.12954 0 0.2384 0.03307 0.11024 0.03169 0.19017 0.09784 0.0813 0.06615 0.12678 0.16536 0.04547 0.09784 0.04547 0.23013 0 0.10335-0.0317 0.19017-0.03032 0.08544-0.08819 0.15296-0.0565 0.06752-0.1378 0.11576-0.07993 0.04685-0.18052 0.07304v0.0055q0.04961 0.02205 0.08544 0.05099 0.03721 0.02756 0.07028 0.06615 0.03307 0.03858 0.06477 0.08819 0.03307 0.04823 0.07304 0.113zm-1.1851-1.7666v0.71658h0.31419q0.08682 0 0.15985-0.02618 0.07441-0.02618 0.12816-0.07441 0.05374-0.04961 0.08406-0.11989 0.03032-0.07166 0.03032-0.15985 0-0.15847-0.10335-0.24667-0.10197-0.08957-0.29628-0.08957z"/>
<path d="m29.272 38.529h-0.57051v1.7666h-0.23151v-1.7666h-0.56913v-0.20946h1.3711z"/>
</g>
<g aria-label="END">
<path d="m39.87 40.296h-1.0473v-1.9761h1.0032v0.20946h-0.7717v0.65732h0.71382v0.20808h-0.71382v0.69178h0.8158z"/>
<path d="m41.844 40.296h-0.28388l-1.017-1.5751q-0.03858-0.05926-0.06339-0.12402h-0.0083q0.01102 0.06339 0.01102 0.27147v1.4276h-0.23151v-1.9761h0.30041l0.98943 1.5503q0.06201 0.09646 0.07993 0.13229h0.0055q-0.01378-0.08544-0.01378-0.29077v-1.3918h0.23151z"/>
<path d="m42.362 40.296v-1.9761h0.5457q1.0446 0 1.0446 0.96325 0 0.45751-0.29077 0.73587-0.28939 0.27699-0.77584 0.27699zm0.23151-1.7666v1.5572h0.2949q0.38861 0 0.60496-0.20808t0.21635-0.5898q0-0.7593-0.80753-0.7593z"/>
</g>
<g aria-label="PLAY">
<path d="m10.865 105.25v0.7469h-0.23151v-1.9761h0.54295q0.31695 0 0.49058 0.15434 0.17501 0.15434 0.17501 0.43546t-0.1943 0.46027q-0.19292 0.17914-0.52228 0.17914zm0-1.0198v0.81029h0.24254q0.23978 0 0.36518-0.10887 0.12678-0.11024 0.12678-0.31006 0-0.39136-0.46302-0.39136z"/>
<path d="m13.24 106h-1.0253v-1.9761h0.23151v1.7666h0.79375z"/>
<path d="m15.073 106h-0.25632l-0.20946-0.55397h-0.83785l-0.19706 0.55397h-0.25769l0.75792-1.9761h0.23978zm-0.54157-0.76206-0.31006-0.84198q-0.01516-0.0413-0.03032-0.13229h-0.0055q-0.01378 0.0841-0.0317 0.13229l-0.3073 0.84198z"/>
<path d="m16.647 104.02-0.65181 1.2458v0.73036h-0.23151v-0.72485l-0.63528-1.2513h0.2632l0.44235 0.89297q0.0083 0.0165 0.04823 0.12127h0.0041q0.01378-0.0469 0.05236-0.12127l0.46302-0.89297z"/>
</g>
<g aria-label="EOC">
<path d="m35.757 106h-1.0473v-1.9761h1.0032v0.20946h-0.7717v0.65733h0.71382v0.20808h-0.71382v0.69178h0.8158z"/>
<path d="m36.934 106.03q-0.4203 0-0.67386-0.27698-0.25218-0.27699-0.25218-0.72072 0-0.4768 0.25769-0.76067 0.25769-0.28388 0.70142-0.28388 0.40928 0 0.6587 0.27561 0.2508 0.2756 0.2508 0.72071 0 0.48369-0.25632 0.76481t-0.68626 0.28112zm0.01654-1.8328q-0.31144 0-0.50574 0.22462t-0.1943 0.5898 0.18879 0.58842q0.19017 0.22187 0.49472 0.22187 0.32522 0 0.51263-0.21222t0.18741-0.59393q0-0.39137-0.1819-0.60496-0.1819-0.2136-0.50161-0.2136z"/>
<path d="m39.61 105.92q-0.21911 0.11575-0.5457 0.11575-0.42168 0-0.67524-0.27147t-0.25356-0.71245q0-0.47404 0.28525-0.76619 0.28525-0.29214 0.72347-0.29214 0.28112 0 0.46578 0.0813v0.24667q-0.21222-0.11851-0.46853-0.11851-0.34038 0-0.55259 0.22738-0.21084 0.22737-0.21084 0.60771 0 0.36105 0.19706 0.57602 0.19844 0.2136 0.51952 0.2136 0.29766 0 0.51539-0.13229z"/>
</g>
<g aria-label="OUT">
<path d="m23.643 106.03q-0.4203 0-0.67386-0.27699-0.25218-0.27698-0.25218-0.72071 0-0.4768 0.25769-0.76068 0.25769-0.28387 0.70142-0.28387 0.40928 0 0.6587 0.2756 0.2508 0.27561 0.2508 0.72072 0 0.48369-0.25632 0.76481t-0.68626 0.28112zm0.01654-1.8328q-0.31144 0-0.50574 0.22462-0.1943 0.22462-0.1943 0.5898t0.18879 0.58842q0.19017 0.22187 0.49472 0.22187 0.32522 0 0.51263-0.21222t0.18741-0.59394q0-0.39136-0.1819-0.60496-0.1819-0.21359-0.5016-0.21359z"/>
<path d="m26.42 105.2q0 0.83234-0.75103 0.83234-0.71934 0-0.71934-0.80064v-1.2085h0.23151v1.1934q0 0.60772 0.51263 0.60772 0.49472 0 0.49472-0.58705v-1.214h0.23151z"/>
<path d="m28.083 104.23h-0.57051v1.7666h-0.23151v-1.7666h-0.56913v-0.20946h1.3711z"/>
</g>
<g aria-label="SAMPLE">
<path d="m2.808 78.011v-0.27285q0.046853 0.04134 0.11162 0.07441 0.066146 0.03307 0.1378 0.0565 0.073036 0.02205 0.14607 0.03445t0.13505 0.0124q0.2136 0 0.31833-0.07855 0.10611-0.07993 0.10611-0.22875 0-0.07993-0.035829-0.13918-0.034451-0.05926-0.096463-0.10749-0.062012-0.04961-0.14745-0.09371-0.08406-0.04547-0.1819-0.09508-0.10335-0.05237-0.19293-0.10611-0.089573-0.05374-0.15572-0.11851-0.066146-0.06477-0.10473-0.14607-0.037207-0.08268-0.037207-0.19293 0-0.13505 0.059256-0.23427 0.059256-0.1006 0.15572-0.16536 0.096463-0.06477 0.21911-0.09646 0.12402-0.03169 0.25218-0.03169 0.29214 0 0.42581 0.07028v0.26045q-0.17501-0.12127-0.44924-0.12127-0.075792 0-0.15158 0.01654-0.075792 0.01516-0.13505 0.05099-0.059256 0.03583-0.096463 0.09233t-0.037207 0.1378q0 0.07579 0.027561 0.13091 0.028939 0.05512 0.08406 0.1006 0.055122 0.04547 0.13367 0.08819 0.079926 0.04272 0.18328 0.09371 0.10611 0.05237 0.20119 0.11024 0.095085 0.05788 0.16674 0.12816 0.071658 0.07028 0.113 0.15572 0.042719 0.08544 0.042719 0.19568 0 0.14607-0.057878 0.24805-0.0565 0.1006-0.15434 0.16399-0.096463 0.06339-0.22324 0.09095-0.12678 0.02894-0.26734 0.02894-0.046853 0-0.11576-0.0083-0.068902-0.0069-0.14056-0.02205-0.071658-0.01378-0.13643-0.03445-0.06339-0.02205-0.10197-0.04823z"/>
<path d="m5.9293 78.091h-0.25632l-0.20946-0.55397h-0.83785l-0.19706 0.55397h-0.25769l0.75792-1.9761h0.23978zm-0.54157-0.76206-0.31006-0.84198q-0.015158-0.04134-0.030317-0.13229h-0.00551q-0.01378 0.08406-0.031695 0.13229l-0.3073 0.84198z"/>
<path d="m8.2334 78.091h-0.23013v-1.3257q0-0.1571 0.019292-0.38447h-0.00551q-0.033073 0.13367-0.059256 0.19155l-0.67524 1.5186h-0.113l-0.67386-1.5076q-0.028939-0.06614-0.059256-0.20257h-0.00551q0.011024 0.11851 0.011024 0.38723v1.3229h-0.22324v-1.9761h0.30592l0.60634 1.378q0.07028 0.15847 0.09095 0.23702h0.00827q0.059256-0.16261 0.095085-0.24253l0.61874-1.3725h0.28939z"/>
<path d="m8.9858 77.344v0.7469h-0.23151v-1.9761h0.54295q0.31695 0 0.49058 0.15434 0.17501 0.15434 0.17501 0.43546t-0.1943 0.46026q-0.19293 0.17914-0.52228 0.17914zm0-1.0197v0.81029h0.24253q0.23978 0 0.36518-0.10886 0.12678-0.11024 0.12678-0.31006 0-0.39136-0.46302-0.39136z"/>
<path d="m11.362 78.091h-1.0253v-1.9761h0.23151v1.7666h0.79375z"/>
<path d="m12.712 78.091h-1.0473v-1.9761h1.0032v0.20946h-0.7717v0.65732h0.71382v0.20808h-0.71382v0.69178h0.8158z"/>
</g>
<g aria-label="START">
<path d="m15.648 78.011v-0.27285q0.04685 0.04134 0.11162 0.07441 0.06615 0.03307 0.1378 0.0565 0.07304 0.02205 0.14607 0.03445 0.07304 0.0124 0.13505 0.0124 0.2136 0 0.31833-0.07855 0.10611-0.07993 0.10611-0.22876 0-0.07993-0.03583-0.13918-0.03445-0.05925-0.09646-0.10749-0.06201-0.04961-0.14745-0.09371-0.08406-0.04548-0.1819-0.09509-0.10335-0.05236-0.19292-0.10611-0.08957-0.05374-0.15572-0.11851-0.06615-0.06477-0.10473-0.14607-0.03721-0.08268-0.03721-0.19292 0-0.13505 0.05926-0.23427 0.05926-0.1006 0.15572-0.16536 0.09646-0.06477 0.21911-0.09646 0.12402-0.03169 0.25218-0.03169 0.29214 0 0.42581 0.07028v0.26045q-0.17501-0.12127-0.44924-0.12127-0.07579 0-0.15158 0.01654-0.07579 0.01516-0.13505 0.05099-0.05926 0.03583-0.09646 0.09233-0.03721 0.0565-0.03721 0.1378 0 0.07579 0.02756 0.13091 0.02894 0.05512 0.08406 0.1006 0.05512 0.04548 0.13367 0.08819 0.07993 0.04272 0.18328 0.09371 0.10611 0.05237 0.20119 0.11024 0.09509 0.05788 0.16674 0.12816 0.07166 0.07028 0.113 0.15572 0.04272 0.08544 0.04272 0.19568 0 0.14607-0.05788 0.24805-0.0565 0.1006-0.15434 0.16399-0.09646 0.06339-0.22324 0.09095-0.12678 0.02894-0.26734 0.02894-0.04685 0-0.11576-0.0083-0.0689-0.0069-0.14056-0.02205-0.07166-0.01378-0.13642-0.03445-0.06339-0.02205-0.10198-0.04823z"/>
<path d="m18.409 76.324h-0.57051v1.7666h-0.23151v-1.7666h-0.56913v-0.20946h1.3711z"/>
<path d="m20.247 78.091h-0.25632l-0.20946-0.55397h-0.83785l-0.19706 0.55397h-0.25769l0.75792-1.9761h0.23978zm-0.54157-0.76206-0.31006-0.84198q-0.01516-0.04134-0.03032-0.13229h-0.0055q-0.01378 0.08406-0.0317 0.13229l-0.3073 0.84198z"/>
<path d="m21.953 78.091h-0.27561l-0.33073-0.55397q-0.04548-0.07717-0.08819-0.13091-0.04272-0.05512-0.08819-0.08957-0.0441-0.03445-0.09646-0.04961-0.05099-0.01654-0.11576-0.01654h-0.19017v0.8406h-0.23151v-1.9761h0.5898q0.12954 0 0.2384 0.03307 0.11024 0.03169 0.19017 0.09784 0.08131 0.06615 0.12678 0.16536 0.04547 0.09784 0.04547 0.23013 0 0.10335-0.03169 0.19017-0.03032 0.08544-0.08819 0.15296-0.0565 0.06752-0.1378 0.11576-0.07993 0.04685-0.18052 0.07304v0.0055q0.04961 0.02205 0.08544 0.05099 0.03721 0.02756 0.07028 0.06615 0.03307 0.03858 0.06477 0.08819 0.03307 0.04823 0.07304 0.113zm-1.1851-1.7666v0.71658h0.31419q0.08682 0 0.15985-0.02618 0.07441-0.02618 0.12816-0.07441 0.05374-0.04961 0.08406-0.11989 0.03032-0.07166 0.03032-0.15985 0-0.15847-0.10335-0.24667-0.10197-0.08957-0.29628-0.08957z"/>
<path d="m23.392 76.324h-0.57051v1.7666h-0.23151v-1.7666h-0.56913v-0.20946h1.3711z"/>
</g>
<g aria-label="END">
<path d="m29.763 78.091h-1.0473v-1.9761h1.0032v0.20946h-0.7717v0.65732h0.71382v0.20808h-0.71382v0.69178h0.8158z"/>
<path d="m31.736 78.091h-0.28388l-1.017-1.5751q-0.03859-0.05926-0.06339-0.12402h-0.0083q0.01102 0.06339 0.01102 0.27147v1.4276h-0.23151v-1.9761h0.30041l0.98943 1.5503q0.06201 0.09646 0.07993 0.13229h0.0055q-0.01378-0.08544-0.01378-0.29077v-1.3918h0.23151z"/>
<path d="m32.254 78.091v-1.9761h0.5457q1.0446 0 1.0446 0.96325 0 0.45751-0.29077 0.73587-0.28939 0.27699-0.77584 0.27699zm0.23151-1.7666v1.5572h0.2949q0.38861 0 0.60496-0.20808t0.21635-0.5898q0-0.7593-0.80753-0.7593z"/>
</g>
<g aria-label="IN">
<path d="m42.1 92.038h-0.23151v-1.9761h0.23151z"/>
<path d="m44.211 92.038h-0.28388l-1.017-1.5751q-0.03858-0.05926-0.06339-0.12402h-0.0083q0.01102 0.06339 0.01102 0.27147v1.4276h-0.23151v-1.9761h0.30041l0.98943 1.5503q0.06201 0.09646 0.07993 0.13229h0.0055q-0.01378-0.08544-0.01378-0.29077v-1.3918h0.23151z"/>
</g>
<g aria-label="REC">
<path d="m42.227 78.091h-0.27561l-0.33073-0.55397q-0.04547-0.07717-0.08819-0.13091-0.04272-0.05512-0.08819-0.08957-0.0441-0.03445-0.09646-0.04961-0.05099-0.01654-0.11576-0.01654h-0.19017v0.8406h-0.23151v-1.9761h0.5898q0.12954 0 0.2384 0.03307 0.11024 0.03169 0.19017 0.09784 0.0813 0.06615 0.12678 0.16536 0.04548 0.09784 0.04548 0.23013 0 0.10335-0.0317 0.19017-0.03032 0.08544-0.08819 0.15296-0.0565 0.06752-0.1378 0.11576-0.07993 0.04685-0.18052 0.07304v0.0055q0.04961 0.02205 0.08544 0.05099 0.03721 0.02756 0.07028 0.06614t0.06477 0.08819q0.03307 0.04823 0.07304 0.113zm-1.1851-1.7666v0.71658h0.31419q0.08682 0 0.15985-0.02618 0.07441-0.02618 0.12816-0.07442 0.05374-0.04961 0.08406-0.11989 0.03032-0.07166 0.03032-0.15985 0-0.15848-0.10335-0.24667-0.10198-0.08957-0.29628-0.08957z"/>
<path d="m43.544 78.091h-1.0473v-1.9761h1.0032v0.20946h-0.7717v0.65732h0.71382v0.20808h-0.71382v0.69178h0.8158z"/>
<path d="m45.27 78.008q-0.21911 0.11576-0.5457 0.11576-0.42168 0-0.67524-0.27147-0.25356-0.27147-0.25356-0.71245 0-0.47404 0.28525-0.76619t0.72347-0.29214q0.28112 0 0.46578 0.0813v0.24667q-0.21222-0.11851-0.46853-0.11851-0.34038 0-0.55259 0.22738-0.21084 0.22738-0.21084 0.60772 0 0.36105 0.19706 0.57602 0.19844 0.2136 0.51952 0.2136 0.29766 0 0.51539-0.13229z"/>
</g>
</g>
</g>
</svg>
