<svg width="40.64mm" height="128.5mm" version="1.1" viewBox="0 0 40.64 128.5" xmlns="http://www.w3.org/2000/svg">
<g>
<rect y=".0001664" width="40.64" height="128.5" fill="#313131" opacity=".99" style="paint-order:markers stroke fill"/>
<rect x="28.27" y="103.4" width="9.5" height="15.059" rx="1" ry="1" style="paint-order:markers stroke fill"/>
</g>
<g display="none" opacity=".522">
<circle cx="20.32" cy="113.44" r="4" display="inline" fill="#0f0" opacity="1" style="paint-order:markers stroke fill"/>
<circle cx="33.02" cy="113.44" r="4" display="inline" fill="#00f" opacity="1" style="paint-order:markers stroke fill"/>
<g fill="#f00">
<circle cx="5.08" cy="83.324" r="4" display="inline" opacity="1" style="paint-order:markers stroke fill"/>
<circle cx="15.24" cy="83.324" r="4" display="inline" opacity="1" style="paint-order:markers stroke fill"/>
<circle cx="25.4" cy="83.324" r="4" display="inline" opacity="1" style="paint-order:markers stroke fill"/>
<circle cx="35.56" cy="83.324" r="4" display="inline" opacity="1" style="paint-order:markers stroke fill"/>
<circle cx="5.08" cy="38.148" r="4" display="inline" opacity="1" style="paint-order:markers stroke fill"/>
<circle cx="15.24" cy="38.148" r="4" display="inline" opacity="1" style="paint-order:markers stroke fill"/>
<circle cx="25.4" cy="38.148" r="4" display="inline" opacity="1" style="paint-order:markers stroke fill"/>
<circle cx="35.56" cy="38.148" r="4" display="inline" opacity="1" style="paint-order:markers stroke fill"/>
<circle cx="5.08" cy="48.187" r="4" display="inline" opacity="1" style="paint-order:markers stroke fill"/>
<circle cx="15.24" cy="48.187" r="4" display="inline" opacity="1" style="paint-order:markers stroke fill"/>
<circle cx="25.4" cy="48.187" r="4" display="inline" opacity="1" style="paint-order:markers stroke fill"/>
<circle cx="35.56" cy="48.187" r="4" display="inline" opacity="1" style="paint-order:markers stroke fill"/>
<circle cx="5.08" cy="58.226" r="4" display="inline" opacity="1" style="paint-order:markers stroke fill"/>
<circle cx="15.24" cy="58.226" r="4" display="inline" opacity="1" style="paint-order:markers stroke fill"/>
<circle cx="25.4" cy="58.226" r="4" display="inline" opacity="1" style="paint-order:markers stroke fill"/>
<circle cx="35.56" cy="58.226" r="4" display="inline" opacity="1" style="paint-order:markers stroke fill"/>
<circle cx="5.08" cy="68.266" r="4" display="inline" opacity="1" style="paint-order:markers stroke fill"/>
<circle cx="15.24" cy="68.266" r="4" display="inline" opacity="1" style="paint-order:markers stroke fill"/>
<circle cx="25.4" cy="68.266" r="4" display="inline" opacity="1" style="paint-order:markers stroke fill"/>
<circle cx="35.56" cy="68.266" r="4" display="inline" opacity="1" style="paint-order:markers stroke fill"/>
<circle cx="5.08" cy="23.09" r="4" display="inline" opacity="1" style="paint-order:markers stroke fill"/>
<circle cx="15.24" cy="23.09" r="4" display="inline" opacity="1" style="paint-order:markers stroke fill"/>
<circle cx="25.4" cy="23.09" r="4" display="inline" opacity="1" style="paint-order:markers stroke fill"/>
<circle cx="35.56" cy="23.09" r="4" display="inline" opacity="1" style="paint-order:markers stroke fill"/>
</g>
<circle cx="7.62" cy="113.44" r="4" display="inline" fill="#0f0" opacity="1" style="paint-order:markers stroke fill"/>
</g>
<g fill="#c8c8c8">
<g stroke-width=".26458">
<g aria-label="PATTERN EDITOR">
<path d="m10.495 30.945v0.59566h-0.38947v-1.7291h0.61013q0.65354 0 0.65354 0.55104 0 0.26045-0.1881 0.42202-0.1869 0.16037-0.5004 0.16037zm0-0.8344v0.53899h0.15313q0.31109 0 0.31109-0.27251 0-0.26648-0.31109-0.26648z"/>
<path d="m13.145 31.541h-0.42444l-0.12299-0.38464h-0.61495l-0.12178 0.38464h-0.42202l0.62942-1.7291h0.46182zm-0.63665-0.68368-0.18569-0.58119q-0.0205-0.06511-0.02894-0.15555h-0.0096q-6e-3 0.07596-0.03014 0.15072l-0.1881 0.58601z"/>
<path d="m14.575 30.129h-0.49317v1.412h-0.39067v-1.412h-0.49075v-0.31712h1.3746z"/>
<path d="m16.022 30.129h-0.49316v1.412h-0.39067v-1.412h-0.49075v-0.31712h1.3746z"/>
<path d="m17.292 31.541h-1.037v-1.7291h0.99718v0.31712h-0.60772v0.38464h0.56551v0.31592h-0.56551v0.3955h0.64751z"/>
<path d="m19.022 31.541h-0.44735l-0.26889-0.44493q-0.03014-0.05064-0.05788-0.09043-0.02773-0.03979-0.05667-0.06752-0.02773-0.02894-0.05908-0.04341-0.03014-0.01568-0.06632-0.01568h-0.1049v0.66198h-0.38947v-1.7291h0.61736q0.62942 0 0.62942 0.47026 0 0.09043-0.02773 0.1676-0.02773 0.07597-0.07838 0.13746-0.05064 0.0615-0.12299 0.10611-0.07114 0.04461-0.15916 0.06994v0.0048q0.03859 0.01206 0.07476 0.03979 0.03617 0.02653 0.06994 0.0627 0.03376 0.03617 0.06391 0.07838 0.03135 0.041 0.05667 0.08079zm-1.0611-1.4373v0.48111h0.16881q0.1254 0 0.20137-0.07235 0.07717-0.07355 0.07717-0.18207 0-0.22669-0.2713-0.22669z"/>
<path d="m20.738 31.541h-0.39308l-0.71262-1.0864q-0.0627-0.09526-0.08682-0.14349h-0.0048q0.0096 0.09164 0.0096 0.27974v0.95016h-0.36776v-1.7291h0.41961l0.68609 1.0526q0.04703 0.07114 0.08682 0.14108h0.0048q-0.0096-0.06029-0.0096-0.23754v-0.95619h0.36776z"/>
<path d="m22.848 31.541h-1.037v-1.7291h0.99718v0.31712h-0.60771v0.38464h0.56551v0.31592h-0.56551v0.3955h0.6475z"/>
<path d="m23.128 31.541v-1.7291h0.61254q0.92122 0 0.92122 0.84284 0 0.40394-0.25201 0.64509-0.2508 0.24116-0.66921 0.24116zm0.38947-1.412v1.0961h0.19292q0.25322 0 0.3967-0.15193 0.14469-0.15193 0.14469-0.41358 0-0.24719-0.14349-0.38826-0.14228-0.14228-0.40032-0.14228z"/>
<path d="m25.34 31.541h-0.38947v-1.7291h0.38947z"/>
<path d="m26.946 30.129h-0.49317v1.412h-0.39067v-1.412h-0.49075v-0.31712h1.3746z"/>
<path d="m27.91 31.571q-0.37138 0-0.6053-0.24116-0.23392-0.24236-0.23392-0.63062 0-0.40997 0.23754-0.66318 0.23754-0.25322 0.62942-0.25322 0.37018 0 0.59807 0.24236 0.2291 0.24236 0.2291 0.63906 0 0.40756-0.23754 0.65715-0.23633 0.2496-0.61736 0.2496zm0.01688-1.453q-0.20498 0-0.32556 0.15434-0.12058 0.15314-0.12058 0.40635 0 0.25683 0.12058 0.40635 0.12058 0.14952 0.31592 0.14952 0.20137 0 0.31953-0.14469 0.11817-0.1459 0.11817-0.40394 0-0.26889-0.11455-0.41841-0.11455-0.14952-0.3135-0.14952z"/>
<path d="m30.501 31.541h-0.44735l-0.26889-0.44493q-0.03015-0.05064-0.05788-0.09043t-0.05667-0.06752q-0.02773-0.02894-0.05908-0.04341-0.03014-0.01568-0.06632-0.01568h-0.1049v0.66198h-0.38947v-1.7291h0.61736q0.62942 0 0.62942 0.47026 0 0.09043-0.02773 0.1676-0.02773 0.07597-0.07838 0.13746-0.05064 0.0615-0.12299 0.10611-0.07114 0.04461-0.15916 0.06994v0.0048q0.03858 0.01206 0.07476 0.03979 0.03617 0.02653 0.06993 0.0627t0.06391 0.07838q0.03135 0.041 0.05667 0.08079zm-1.0611-1.4373v0.48111h0.16881q0.1254 0 0.20137-0.07235 0.07717-0.07355 0.07717-0.18207 0-0.22669-0.2713-0.22669z"/>
</g>
<g aria-label="CLOCK">
<path d="m5.1058 106.84q-0.18931 0.0916-0.49437 0.0916-0.39791 0-0.6258-0.23392-0.22789-0.23393-0.22789-0.62339 0-0.41479 0.25563-0.67283 0.25683-0.25804 0.66559-0.25804 0.25321 0 0.42685 0.0639v0.375q-0.17363-0.1037-0.3955-0.1037-0.24357 0-0.39309 0.15313-0.14952 0.15314-0.14952 0.41479 0 0.25081 0.14108 0.40032 0.14108 0.14831 0.37982 0.14831 0.22789 0 0.4172-0.11093z"/>
<path d="m6.4394 106.9h-1.0297v-1.7291h0.38947v1.4132h0.64027z"/>
<path d="m7.404 106.93q-0.37138 0-0.6053-0.24116-0.23392-0.24236-0.23392-0.63062 0-0.40997 0.23754-0.66318 0.23754-0.25322 0.62942-0.25322 0.37018 0 0.59807 0.24236 0.2291 0.24237 0.2291 0.63907 0 0.40755-0.23754 0.65715-0.23633 0.2496-0.61736 0.2496zm0.016881-1.453q-0.20498 0-0.32556 0.15434-0.12058 0.15313-0.12058 0.40635 0 0.25683 0.12058 0.40635 0.12058 0.14951 0.31592 0.14951 0.20137 0 0.31953-0.14469 0.11817-0.1459 0.11817-0.40394 0-0.26889-0.11455-0.4184-0.11455-0.14952-0.3135-0.14952z"/>
<path d="m9.7842 106.84q-0.18931 0.0916-0.49437 0.0916-0.39791 0-0.6258-0.23392-0.22789-0.23393-0.22789-0.62339 0-0.41479 0.25563-0.67283 0.25683-0.25804 0.66559-0.25804 0.25321 0 0.42685 0.0639v0.375q-0.17363-0.1037-0.3955-0.1037-0.24357 0-0.39309 0.15313-0.14952 0.15314-0.14952 0.41479 0 0.25081 0.14108 0.40032 0.14108 0.14831 0.37982 0.14831 0.22789 0 0.4172-0.11093z"/>
<path d="m11.525 106.9h-0.49196l-0.50402-0.7512q-0.01447-0.0217-0.04582-0.0953h-6e-3v0.84646h-0.38947v-1.7291h0.38947v0.81752h6e-3q0.01447-0.0338 0.04823-0.0965l0.47749-0.72106h0.46423l-0.60289 0.82476z"/>
</g>
<g aria-label="PATTERN SELECT">
<path d="m10.825 76.665v0.59566h-0.38947v-1.7291h0.61013q0.65354 0 0.65354 0.55104 0 0.26045-0.1881 0.42202-0.1869 0.16037-0.5004 0.16037zm0-0.8344v0.53898h0.15313q0.31109 0 0.31109-0.27251 0-0.26648-0.31109-0.26648z"/>
<path d="m13.476 77.261h-0.42444l-0.12299-0.38464h-0.61495l-0.12178 0.38464h-0.42202l0.62942-1.7291h0.46182zm-0.63665-0.68368-0.18569-0.58119q-0.0205-0.06511-0.02894-0.15555h-0.0096q-6e-3 0.07596-0.03014 0.15072l-0.1881 0.58601z"/>
<path d="m14.906 75.849h-0.49317v1.412h-0.39067v-1.412h-0.49075v-0.31712h1.3746z"/>
<path d="m16.353 75.849h-0.49316v1.412h-0.39067v-1.412h-0.49075v-0.31712h1.3746z"/>
<path d="m17.622 77.261h-1.037v-1.7291h0.99718v0.31712h-0.60772v0.38464h0.56551v0.31592h-0.56551v0.3955h0.64751z"/>
<path d="m19.353 77.261h-0.44734l-0.26889-0.44493q-0.03014-0.05064-0.05788-0.09043-0.02773-0.03979-0.05667-0.06752-0.02773-0.02894-0.05908-0.04341-0.03014-0.01568-0.06632-0.01568h-0.1049v0.66198h-0.38947v-1.7291h0.61736q0.62942 0 0.62942 0.47026 0 0.09043-0.02773 0.1676-0.02773 0.07596-0.07838 0.13746-0.05064 0.0615-0.12299 0.10611-0.07114 0.04461-0.15916 0.06994v0.0048q0.03859 0.01206 0.07476 0.03979 0.03617 0.02653 0.06994 0.0627 0.03376 0.03617 0.06391 0.07838 0.03135 0.041 0.05667 0.08079zm-1.0611-1.4373v0.48111h0.16881q0.1254 0 0.20136-0.07235 0.07717-0.07355 0.07717-0.18207 0-0.22669-0.2713-0.22669z"/>
<path d="m21.069 77.261h-0.39308l-0.71262-1.0864q-0.0627-0.09526-0.08682-0.14349h-0.0048q0.0096 0.09164 0.0096 0.27974v0.95016h-0.36776v-1.7291h0.41961l0.68609 1.0526q0.04702 0.07114 0.08682 0.14108h0.0048q-0.0096-0.06029-0.0096-0.23754v-0.95619h0.36776z"/>
<path d="m22.062 77.195v-0.38585q0.1049 0.08802 0.22789 0.13264 0.12299 0.04341 0.24839 0.04341 0.07355 0 0.12781-0.01326 0.05547-0.01326 0.09164-0.03617 0.03738-0.02411 0.05547-0.05547 0.01809-0.03256 0.01809-0.06994 0-0.05064-0.02894-0.09043t-0.07958-0.07355q-0.04944-0.03376-0.11817-0.06511-0.06873-0.03135-0.14831-0.06391-0.20257-0.0844-0.30265-0.20619-0.09887-0.12178-0.09887-0.29421 0-0.13505 0.05426-0.23151 0.05426-0.09767 0.14711-0.16037 0.09405-0.0627 0.21704-0.09164 0.12299-0.03014 0.26045-0.03014 0.13505 0 0.23874 0.01688 0.1049 0.01568 0.19292 0.04944v0.36053q-0.04341-0.03015-0.09526-0.05306-0.05064-0.02291-0.1049-0.03738-0.05426-0.01568-0.10852-0.02291-0.05306-0.0072-0.10129-0.0072-0.06632 0-0.12058 0.01326-0.05426 0.01206-0.09164 0.03497t-0.05788 0.05547q-0.0205 0.03135-0.0205 0.07114 0 0.04341 0.02291 0.07838 0.02291 0.03376 0.06511 0.06511 0.0422 0.03014 0.10249 0.06029 0.06029 0.02894 0.13625 0.06029 0.1037 0.04341 0.18569 0.09284 0.0832 0.04823 0.14228 0.10973 0.05908 0.06149 0.09043 0.14108 0.03135 0.07838 0.03135 0.18328 0 0.14469-0.05547 0.24357-0.05426 0.09767-0.14831 0.15916-0.09405 0.06029-0.21945 0.08682-0.1242 0.02653-0.26286 0.02653-0.14228 0-0.2713-0.02411-0.12781-0.02412-0.22186-0.07235z"/>
<path d="m24.563 77.261h-1.037v-1.7291h0.99718v0.31712h-0.60771v0.38464h0.56551v0.31592h-0.56551v0.3955h0.6475z"/>
<path d="m25.872 77.261h-1.0297v-1.7291h0.38947v1.4132h0.64027z"/>
<path d="m27.143 77.261h-1.037v-1.7291h0.99718v0.31712h-0.60772v0.38464h0.56551v0.31592h-0.56551v0.3955h0.64751z"/>
<path d="m28.663 77.199q-0.18931 0.09164-0.49437 0.09164-0.39791 0-0.6258-0.23392t-0.22789-0.62339q0-0.41479 0.25563-0.67283 0.25683-0.25804 0.66559-0.25804 0.25322 0 0.42685 0.06391v0.375q-0.17363-0.1037-0.3955-0.1037-0.24357 0-0.39309 0.15314-0.14952 0.15313-0.14952 0.41479 0 0.2508 0.14108 0.40032 0.14108 0.14831 0.37982 0.14831 0.22789 0 0.4172-0.11093z"/>
<path d="m30.181 75.849h-0.49316v1.412h-0.39067v-1.412h-0.49075v-0.31712h1.3746z"/>
</g>
<g aria-label="RESET">
<path d="m18.367 106.9h-0.44734l-0.26889-0.44493q-0.03015-0.0506-0.05788-0.0904t-0.05667-0.0675q-0.02773-0.0289-0.05908-0.0434-0.03014-0.0157-0.06632-0.0157h-0.1049v0.66197h-0.38947v-1.7291h0.61736q0.62942 0 0.62942 0.47026 0 0.0904-0.02773 0.1676-0.02773 0.076-0.07838 0.13746-0.05064 0.0615-0.12299 0.10611-0.07114 0.0446-0.15916 0.0699v5e-3q0.03859 0.0121 0.07476 0.0398 0.03617 0.0265 0.06994 0.0627 0.03376 0.0362 0.06391 0.0784 0.03135 0.041 0.05667 0.0808zm-1.0611-1.4373v0.48111h0.16881q0.1254 0 0.20136-0.0724 0.07717-0.0735 0.07717-0.18207 0-0.22669-0.2713-0.22669z"/>
<path d="m19.564 106.9h-1.037v-1.7291h0.99718v0.31712h-0.60771v0.38465h0.56551v0.31591h-0.56551v0.3955h0.6475z"/>
<path d="m19.765 106.83v-0.38586q0.1049 0.088 0.22789 0.13264 0.12299 0.0434 0.24839 0.0434 0.07355 0 0.12781-0.0133 0.05547-0.0133 0.09164-0.0362 0.03738-0.0241 0.05547-0.0555 0.01809-0.0326 0.01809-0.0699 0-0.0506-0.02894-0.0904t-0.07958-0.0736q-0.04944-0.0338-0.11817-0.0651-0.06873-0.0314-0.14831-0.0639-0.20257-0.0844-0.30265-0.20619-0.09887-0.12179-0.09887-0.29421 0-0.13505 0.05426-0.23152 0.05426-0.0977 0.14711-0.16036 0.09405-0.0627 0.21704-0.0916 0.12299-0.0302 0.26045-0.0302 0.13505 0 0.23874 0.0169 0.1049 0.0157 0.19292 0.0494v0.36053q-0.04341-0.0301-0.09526-0.0531-0.05064-0.0229-0.1049-0.0374-0.05426-0.0157-0.10852-0.0229-0.05306-7e-3 -0.10129-7e-3 -0.06632 0-0.12058 0.0133-0.05426 0.0121-0.09164 0.035t-0.05788 0.0555q-0.0205 0.0314-0.0205 0.0711 0 0.0434 0.02291 0.0784 0.02291 0.0338 0.06511 0.0651 0.0422 0.0301 0.10249 0.0603 0.06029 0.0289 0.13625 0.0603 0.1037 0.0434 0.18569 0.0928 0.0832 0.0482 0.14228 0.10973 0.05908 0.0615 0.09043 0.14107 0.03135 0.0784 0.03135 0.18328 0 0.1447-0.05547 0.24357-0.05426 0.0977-0.14831 0.15916-0.09405 0.0603-0.21945 0.0868-0.1242 0.0265-0.26286 0.0265-0.14228 0-0.2713-0.0241-0.12781-0.0241-0.22186-0.0723z"/>
<path d="m22.265 106.9h-1.037v-1.7291h0.99718v0.31712h-0.60772v0.38465h0.56551v0.31591h-0.56551v0.3955h0.64751z"/>
<path d="m23.759 105.49h-0.49316v1.412h-0.39067v-1.412h-0.49075v-0.31712h1.3746z"/>
</g>
<g aria-label="GATE">
<path d="m31.469 106.78q-0.25321 0.1459-0.62942 0.1459-0.4172 0-0.65836-0.23031-0.23995-0.23151-0.23995-0.63665 0-0.40755 0.26286-0.66439 0.26286-0.25683 0.69936-0.25683 0.27492 0 0.48472 0.076v0.36535q-0.20016-0.11576-0.48955-0.11576-0.24236 0-0.3955 0.15796-0.15193 0.15675-0.15193 0.41961 0 0.26648 0.13625 0.41238 0.13746 0.1459 0.37018 0.1459 0.13987 0 0.22186-0.0398v-0.33762h-0.34606v-0.31111h0.73553z"/>
<path d="m33.326 106.9h-0.42444l-0.12299-0.38464h-0.61495l-0.12178 0.38464h-0.42202l0.62942-1.7291h0.46182zm-0.63665-0.68368-0.18569-0.58118q-0.0205-0.0651-0.02894-0.15555h-0.0096q-6e-3 0.076-0.03014 0.15072l-0.1881 0.58601z"/>
<path d="m34.756 105.49h-0.49317v1.412h-0.39067v-1.412h-0.49075v-0.31712h1.3746z"/>
<path d="m36.026 106.9h-1.037v-1.7291h0.99718v0.31712h-0.60772v0.38465h0.56551v0.31591h-0.56551v0.3955h0.64751z"/>
</g>
<g aria-label="EDIT  PAGE">
<path d="m14.21 16.301h-1.1851v-1.9761h1.1396v0.36242h-0.69453v0.43959h0.6463v0.36105h-0.6463v0.452h0.74001z"/>
<path d="m14.529 16.301v-1.9761h0.70004q1.0528 0 1.0528 0.96325 0 0.46164-0.28801 0.73725-0.28663 0.27561-0.76481 0.27561zm0.44511-1.6137v1.2526h0.22049q0.28939 0 0.45337-0.17363 0.16536-0.17363 0.16536-0.47267 0-0.2825-0.16399-0.44373-0.16261-0.16261-0.45751-0.16261z"/>
<path d="m17.058 16.301h-0.44511v-1.9761h0.44511z"/>
<path d="m18.894 14.687h-0.56362v1.6137h-0.44648v-1.6137h-0.56086v-0.36242h1.571z"/>
<path d="m21.148 15.62v0.68075h-0.44511v-1.9761h0.69729q0.7469 0 0.7469 0.62976 0 0.29766-0.21497 0.48231-0.2136 0.18328-0.57189 0.18328zm0-0.9536v0.61598h0.17501q0.35553 0 0.35553-0.31144 0-0.30455-0.35553-0.30455z"/>
<path d="m24.177 16.301h-0.48507l-0.14056-0.4396h-0.7028l-0.13918 0.4396h-0.48231l0.71934-1.9761h0.52779zm-0.7276-0.78135-0.21222-0.66422q-0.02343-0.07441-0.03307-0.17777h-0.01102q-0.0069 0.08682-0.03445 0.17225l-0.21497 0.66973z"/>
<path d="m26.046 16.169q-0.28939 0.16674-0.71934 0.16674-0.4768 0-0.75241-0.2632-0.27423-0.26458-0.27423-0.7276 0-0.46578 0.30041-0.7593t0.79926-0.29352q0.31419 0 0.55397 0.08682v0.41755q-0.22876-0.13229-0.55948-0.13229-0.27699 0-0.452 0.18052-0.17363 0.17914-0.17363 0.47956 0 0.30455 0.15572 0.47129 0.1571 0.16674 0.42306 0.16674 0.15985 0 0.25356-0.04547v-0.38585h-0.3955v-0.35553h0.8406z"/>
<path d="m27.615 16.301h-1.1851v-1.9761h1.1396v0.36242h-0.69453v0.43959h0.6463v0.36105h-0.6463v0.452h0.74001z"/>
</g>
</g>
<g transform="translate(5.1595 2.8126)" aria-label="Dual Envelope Generator">
<g fill="#c8c8c8" aria-label=" GATE SEQUENCER">
<path d="m7.7368 4.3787q-0.36174 0.20843-0.89917 0.20843-0.596 0-0.94051-0.32901-0.34279-0.33073-0.34279-0.90951 0-0.58222 0.37552-0.94912 0.37552-0.3669 0.99908-0.3669 0.39274 0 0.69246 0.10852v0.52193q-0.28594-0.16536-0.69935-0.16536-0.34623 0-0.565 0.22565-0.21704 0.22393-0.21704 0.59945 0 0.38068 0.19465 0.58911 0.19637 0.20843 0.52882 0.20843 0.19982 0 0.31695-0.056844v-0.48231h-0.49437v-0.44442h1.0508z"/>
<path d="m13.829 4.5441h-0.60634l-0.1757-0.54949h-0.8785l-0.17398 0.54949h-0.60289l0.89917-2.4701h0.65974zm-0.90951-0.97668-0.26527-0.83027q-0.02928-0.093018-0.04134-0.22221h-0.01378q-0.0086 0.10852-0.04306 0.21532l-0.26872 0.83716z"/>
<path d="m19.312 2.527h-0.70452v2.0171h-0.5581v-2.0171h-0.70108v-0.45303h1.9637z"/>
<path d="m24.565 4.5441h-1.4814v-2.4701h1.4245v0.45303h-0.86816v0.54949h0.80788v0.45131h-0.80788v0.565h0.92501z"/>
<path d="m5.1534 7.9771v-0.55122q0.14986 0.12575 0.32556 0.18948 0.1757 0.062012 0.35484 0.062012 0.10508 0 0.18259-0.018948 0.079237-0.018948 0.13091-0.051676 0.053399-0.034451 0.079237-0.079237 0.025838-0.046509 0.025838-0.099908 0-0.072347-0.041341-0.12919-0.041341-0.056845-0.11369-0.10508-0.070624-0.048231-0.16881-0.093018-0.098185-0.044786-0.21187-0.091295-0.28939-0.12058-0.43236-0.29456-0.14125-0.17398-0.14125-0.4203 0-0.19293 0.077515-0.33073 0.077515-0.13953 0.21015-0.2291 0.13436-0.089572 0.31006-0.13091 0.1757-0.043064 0.37207-0.043064 0.19293 0 0.34106 0.024116 0.14986 0.022393 0.27561 0.070624v0.51504q-0.062012-0.043064-0.13608-0.075792-0.072347-0.032728-0.14986-0.053399-0.077515-0.022393-0.15503-0.032728-0.075792-0.010335-0.14469-0.010335-0.09474 0-0.17225 0.018948-0.077515 0.017225-0.13091 0.049954-0.053399 0.032728-0.082682 0.079237-0.029283 0.044786-0.029283 0.10163 0 0.062012 0.032728 0.11197 0.032728 0.048231 0.093017 0.093018 0.060289 0.043064 0.14642 0.086127 0.086127 0.041341 0.19465 0.086127 0.14814 0.062012 0.26527 0.13264 0.11886 0.068902 0.20326 0.15675 0.084405 0.08785 0.12919 0.20154 0.044786 0.11197 0.044786 0.26183 0 0.20671-0.079237 0.34795-0.077515 0.13953-0.21187 0.22738-0.13436 0.086127-0.3135 0.12402-0.17742 0.037896-0.37552 0.037896-0.20326 0-0.38757-0.034451-0.18259-0.034451-0.31695-0.10335z"/>
<path d="m8.7259 8.0719h-1.4814v-2.4701h1.4245v0.45303h-0.86816v0.54949h0.80787v0.45131h-0.80787v0.565h0.92501z"/>
<path d="m10.169 8.1149q-0.53054 0-0.86472-0.34451-0.33417-0.34795-0.33417-0.90089 0-0.58394 0.33934-0.9474 0.33762-0.36174 0.89917-0.36174 0.52882 0 0.85438 0.34623 0.32728 0.34451 0.32728 0.91295 0 0.5805-0.33934 0.93879-0.01206 0.012058-0.02239 0.024116-0.01033 0.010335-0.02239 0.020671l0.62528 0.60117h-0.7786l-0.32728-0.33245q-0.16192 0.043064-0.35657 0.043064zm0.02412-2.0757q-0.29111 0-0.46509 0.22049-0.17225 0.21876-0.17225 0.5805 0 0.3669 0.17225 0.5805 0.17225 0.2136 0.45131 0.2136 0.28766 0 0.45648-0.20671 0.16881-0.21015 0.16881-0.57705 0-0.38241-0.16364-0.59772-0.16192-0.2136-0.44786-0.2136z"/>
<path d="m13.813 7.0022q0 1.1128-1.037 1.1128-1.006 0-1.006-1.0869v-1.4263h0.5581v1.4332q0 0.59945 0.46853 0.59945 0.45992 0 0.45992-0.57878v-1.4538h0.55638z"/>
<path d="m15.83 8.0719h-1.4814v-2.4701h1.4245v0.45303h-0.86816v0.54949h0.80788v0.45131h-0.80788v0.565h0.92501z"/>
<path d="m18.451 8.0719h-0.56155l-1.018-1.552q-0.089572-0.13608-0.12402-0.20498h-0.0069q0.01378 0.13091 0.01378 0.39963v1.3574h-0.52537v-2.4701h0.59945l0.98013 1.5038q0.06718 0.10163 0.12402 0.20154h0.0069q-0.01379-0.086127-0.01379-0.33934v-1.366h0.52538z"/>
<path d="m20.791 7.984q-0.27044 0.13091-0.70624 0.13091-0.56844 0-0.894-0.33417-0.32556-0.33417-0.32556-0.89056 0-0.59256 0.36518-0.96118 0.3669-0.36863 0.95085-0.36863 0.36174 0 0.60978 0.091295v0.53571q-0.24805-0.14814-0.565-0.14814-0.34795 0-0.56155 0.21876-0.2136 0.21876-0.2136 0.59256 0 0.35829 0.20154 0.57189 0.20154 0.21187 0.5426 0.21187 0.32556 0 0.596-0.15847z"/>
<path d="m22.706 8.0719h-1.4814v-2.4701h1.4245v0.45303h-0.86816v0.54949h0.80788v0.45131h-0.80788v0.565h0.92501z"/>
<path d="m25.178 8.0719h-0.63906l-0.38413-0.63562q-0.04306-0.072347-0.08268-0.12919-0.03962-0.056844-0.08096-0.096463-0.03962-0.041341-0.08441-0.062012-0.04306-0.022393-0.09474-0.022393h-0.14986v0.94568h-0.55638v-2.4701h0.88194q0.89917 0 0.89917 0.67179 0 0.12919-0.03962 0.23943-0.03962 0.10852-0.11197 0.19637-0.07235 0.08785-0.1757 0.15158-0.10163 0.063734-0.22738 0.099908v0.00689q0.05512 0.017226 0.1068 0.056844 0.05168 0.037896 0.09991 0.089572 0.04823 0.051677 0.09129 0.11197 0.04479 0.058567 0.08096 0.11541zm-1.5158-2.0533v0.6873h0.24116q0.17914 0 0.28766-0.10335 0.11024-0.10508 0.11024-0.2601 0-0.32384-0.38757-0.32384z"/>
</g>
</g>
<g stroke="#c8c8c8" stroke-width=".2" aria-label="lomAs">
<path d="m14.256 124.71v-2.4553h0.13053v2.3248h1.711v0.13053z"/>
<path d="m17.626 122.2q0.27517 0 0.508 0.13759 0.23283 0.13405 0.36689 0.36688 0.13758 0.23284 0.13758 0.508v0.53623q0 0.27516-0.13758 0.508-0.13406 0.23283-0.36689 0.37041-0.23283 0.13406-0.508 0.13406t-0.508-0.13406q-0.23283-0.13758-0.37042-0.37041-0.13406-0.23284-0.13406-0.508v-0.53623q0-0.27516 0.13406-0.508 0.13758-0.23283 0.37042-0.36688 0.23283-0.13759 0.508-0.13759zm-0.88194 1.5487q0 0.23989 0.11642 0.4445 0.11994 0.20108 0.32103 0.32102 0.20461 0.11642 0.4445 0.11642t0.44097-0.11642q0.20461-0.11994 0.32103-0.32102 0.11994-0.20461 0.11994-0.4445v-0.53623q0-0.23988-0.11994-0.44097-0.11642-0.20461-0.32103-0.32103-0.20108-0.11994-0.44097-0.11994t-0.4445 0.11994q-0.20108 0.11642-0.32103 0.32103-0.11642 0.20109-0.11642 0.44097z"/>
<path d="m19.376 124.71h-0.13053v-2.4553h0.14111l0.85725 1.5134 0.85372-1.5134h0.13053v2.4553h-0.13053v-2.1943l-0.79375 1.4005h-0.12347l-0.80433-1.4182z"/>
<path d="m24.006 124.71h-2.3142l1.1571-2.5082zm-2.1096-0.13053h1.905l-0.9525-2.0673z"/>
<path d="m25.513 123.54q-0.29986-0.06-0.49036-0.13053-0.18697-0.0741-0.29633-0.19755-0.10583-0.127-0.10583-0.32456 0-0.20461 0.10583-0.35983 0.10936-0.15522 0.30339-0.23989 0.19756-0.0847 0.45508-0.0847 0.24694 0 0.45156 0.10584 0.20814 0.1023 0.32808 0.28928 0.11994 0.18697 0.11994 0.42686h-0.13053q0-0.20814-0.10231-0.36689-0.1023-0.15875-0.27869-0.24342-0.17639-0.0882-0.39158-0.0882-0.1905 0-0.3563 0.06-0.16581 0.06-0.27164 0.18344-0.10231 0.12348-0.10231 0.31045 0 0.16933 0.09878 0.27164 0.09878 0.0988 0.25753 0.15169 0.15875 0.0529 0.4445 0.11289 0.28928 0.06 0.44803 0.11642 0.16228 0.0529 0.27164 0.17991 0.11289 0.127 0.11289 0.35631 0 0.2293-0.12347 0.38805-0.11994 0.15523-0.32103 0.23284-0.20108 0.0776-0.43744 0.0776-0.29281 0-0.51506-0.10936t-0.34219-0.30692q-0.11642-0.20108-0.11642-0.45861h0.13053q0 0.22578 0.09878 0.39511 0.1023 0.16933 0.2928 0.26458 0.1905 0.0917 0.45156 0.0917 0.32456 0 0.53622-0.15523 0.2152-0.15522 0.2152-0.42333 0-0.18344-0.09172-0.28222-0.09172-0.0988-0.23283-0.14111-0.13758-0.0459-0.41628-0.10231z"/>
</g>
</g>
</svg>
